<?xml version='1.0' encoding='utf-8'?>
<svg height="333.40mm" viewBox="0.0 0.0 853.08 333.40" width="853.08mm" xmlns="http://www.w3.org/2000/svg" xmlns:cc="http://creativecommons.org/ns#" xmlns:dc="http://purl.org/dc/elements/1.1/" xmlns:inkscape="http://www.inkscape.org/namespaces/inkscape" xmlns:rdf="http://www.w3.org/1999/02/22-rdf-syntax-ns#" xmlns:svg="http://www.w3.org/2000/svg" xmlns:xlink="http://www.w3.org/1999/xlink">
<!--
Console2 - Console with slanted panel and service hatches



This box is designed as a housing for electronic projects. It has hatches that can be re-opened with simple tools. It intentionally cannot be opened with bare hands - if build with thin enough material.

#### Caution
There is a chance that the latches of the back wall or the back wall itself interfere with the front panel or its mounting frame/lips. The generator does not check for this. So depending on the variant chosen you might need to make the box deeper (increase y parameter) or the panel angle steeper (increase angle parameter) until there is enough room.

It's also possible that the frame of the panel interferes with the floor if the hi parameter is too small.

#### Assembly instructions
The main body is easy to assemble by starting with the floor and then adding the four walls and (if present) the top piece.

If the back wall is removable you need to add the lips and latches. The U-shaped clamps holding the latches in place need to be clued in place without also gluing the latches themselves. Make sure the springs on the latches point inwards and the angled ends point to the side walls as shown here:

![Back wall details](static/samples/Console2-backwall-detail.jpg)

If the panel is removable you need to add the springs with the tabs to the side lips. This photo shows the variant which has the panel glued to the frame:

![Back wall details](static/samples/Console2-panel-detail.jpg)

If space is tight you may consider not gluing the cross pieces in place and remove them after the glue-up. This may prevent the latches of the back wall and the panel from interfering with each other.

The variant using finger joints only has the two side lips without the cross bars.

#### Re-Opening

The latches at the back wall lock in place when closed. To open them they need to be pressed in and can then be moved aside.

To remove the panel you have to press in the four tabs at the side. It is easiest to push them in and then pull the panel up a little bit so the tabs stay in.



Created with Boxes.py (https://boxes.hackerspace-bamberg.de/)
Creation date: 2025-06-03 17:04:36
Command line (remove spaces between dashes): boxes Console2 - -x=300 - -y=150 - -bottom_edge=h - -outside=0 - -outside=1 - -front_height=10 - -angle=25 - -removable_panel=0 - -glued_panel=0 - -thickness=6
Url: https://boxes.hackerspace-bamberg.de/Console2?FingerJoint_style=rectangular&FingerJoint_surroundingspaces=0.5&FingerJoint_bottom_lip=0.0&FingerJoint_edge_width=1.0&FingerJoint_extra_length=0.0&FingerJoint_finger=2.0&FingerJoint_play=0.0&FingerJoint_space=2.0&FingerJoint_width=1.0&Stackable_angle=60&Stackable_bottom_stabilizers=0.0&Stackable_height=2.0&Stackable_holedistance=1.0&Stackable_width=4.0&x=300&y=150&h=100&bottom_edge=h&outside=0&outside=1&front_height=10&angle=25&removable_backwall=0&removable_backwall=1&removable_panel=0&glued_panel=0&thickness=6&format=svg&tabs=0.0&qr_code=0&debug=0&labels=0&labels=1&reference=100.0&inner_corners=loop&burn=0.1&language=fr&render=2
Url short: https://boxes.hackerspace-bamberg.de/Console2?x=300&y=150&bottom_edge=h&outside=0&outside=1&front_height=10&angle=25&removable_panel=0&glued_panel=0&thickness=6
SettingsUrl: https://boxes.hackerspace-bamberg.de/Console2?FingerJoint_style=rectangular&FingerJoint_surroundingspaces=0.5&FingerJoint_bottom_lip=0.0&FingerJoint_edge_width=1.0&FingerJoint_extra_length=0.0&FingerJoint_finger=2.0&FingerJoint_play=0.0&FingerJoint_space=2.0&FingerJoint_width=1.0&Stackable_angle=60&Stackable_bottom_stabilizers=0.0&Stackable_height=2.0&Stackable_holedistance=1.0&Stackable_width=4.0&x=300&y=150&h=100&bottom_edge=h&outside=0&outside=1&front_height=10&angle=25&removable_backwall=0&removable_backwall=1&removable_panel=0&glued_panel=0&thickness=6&format=svg&tabs=0.0&qr_code=0&debug=0&labels=0&labels=1&reference=100.0&inner_corners=loop&burn=0.1&language=fr&render=2
SettingsUrl short: https://boxes.hackerspace-bamberg.de/Console2?x=300&y=150&bottom_edge=h&outside=0&outside=1&front_height=10&angle=25&removable_panel=0&glued_panel=0&thickness=6
-->
<title>Console2</title>
<metadata>
<rdf:RDF><cc:Work>
<dc:title>Box - Console2</dc:title>
<dc:date>2025-06-03 17:04:36</dc:date>
<dc:source>https://boxes.hackerspace-bamberg.de/Console2?FingerJoint_style=rectangular&amp;FingerJoint_surroundingspaces=0.5&amp;FingerJoint_bottom_lip=0.0&amp;FingerJoint_edge_width=1.0&amp;FingerJoint_extra_length=0.0&amp;FingerJoint_finger=2.0&amp;FingerJoint_play=0.0&amp;FingerJoint_space=2.0&amp;FingerJoint_width=1.0&amp;Stackable_angle=60&amp;Stackable_bottom_stabilizers=0.0&amp;Stackable_height=2.0&amp;Stackable_holedistance=1.0&amp;Stackable_width=4.0&amp;x=300&amp;y=150&amp;h=100&amp;bottom_edge=h&amp;outside=0&amp;outside=1&amp;front_height=10&amp;angle=25&amp;removable_backwall=0&amp;removable_backwall=1&amp;removable_panel=0&amp;glued_panel=0&amp;thickness=6&amp;format=svg&amp;tabs=0.0&amp;qr_code=0&amp;debug=0&amp;labels=0&amp;labels=1&amp;reference=100.0&amp;inner_corners=loop&amp;burn=0.1&amp;language=fr&amp;render=2</dc:source>
<dc:source>https://boxes.hackerspace-bamberg.de/Console2?x=300&amp;y=150&amp;bottom_edge=h&amp;outside=0&amp;outside=1&amp;front_height=10&amp;angle=25&amp;removable_panel=0&amp;glued_panel=0&amp;thickness=6</dc:source>
<dc:description>Console with slanted panel and service hatches


This box is designed as a housing for electronic projects. It has hatches that can be re-opened with simple tools. It intentionally cannot be opened with bare hands - if build with thin enough material.

#### Caution
There is a chance that the latches of the back wall or the back wall itself interfere with the front panel or its mounting frame/lips. The generator does not check for this. So depending on the variant chosen you might need to make the box deeper (increase y parameter) or the panel angle steeper (increase angle parameter) until there is enough room.

It's also possible that the frame of the panel interferes with the floor if the hi parameter is too small.

#### Assembly instructions
The main body is easy to assemble by starting with the floor and then adding the four walls and (if present) the top piece.

If the back wall is removable you need to add the lips and latches. The U-shaped clamps holding the latches in place need to be clued in place without also gluing the latches themselves. Make sure the springs on the latches point inwards and the angled ends point to the side walls as shown here:

![Back wall details](static/samples/Console2-backwall-detail.jpg)

If the panel is removable you need to add the springs with the tabs to the side lips. This photo shows the variant which has the panel glued to the frame:

![Back wall details](static/samples/Console2-panel-detail.jpg)

If space is tight you may consider not gluing the cross pieces in place and remove them after the glue-up. This may prevent the latches of the back wall and the panel from interfering with each other.

The variant using finger joints only has the two side lips without the cross bars.

#### Re-Opening

The latches at the back wall lock in place when closed. To open them they need to be pressed in and can then be moved aside.

To remove the panel you have to press in the four tabs at the side. It is easiest to push them in and then pull the panel up a little bit so the tabs stay in.


Created with Boxes.py (https://boxes.hackerspace-bamberg.de/)
Command line: boxes Console2 --FingerJoint_style=rectangular --FingerJoint_surroundingspaces=0.5 --FingerJoint_bottom_lip=0.0 --FingerJoint_edge_width=1.0 --FingerJoint_extra_length=0.0 --FingerJoint_finger=2.0 --FingerJoint_play=0.0 --FingerJoint_space=2.0 --FingerJoint_width=1.0 --Stackable_angle=60 --Stackable_bottom_stabilizers=0.0 --Stackable_height=2.0 --Stackable_holedistance=1.0 --Stackable_width=4.0 --x=300 --y=150 --h=100 --bottom_edge=h --outside=0 --outside=1 --front_height=10 --angle=25 --removable_backwall=0 --removable_backwall=1 --removable_panel=0 --glued_panel=0 --thickness=6 --format=svg --tabs=0.0 --qr_code=0 --debug=0 --labels=0 --labels=1 --reference=100.0 --inner_corners=loop --burn=0.1
Command line short: boxes Console2 --x=300 --y=150 --bottom_edge=h --outside=0 --outside=1 --front_height=10 --angle=25 --removable_panel=0 --glued_panel=0 --thickness=6
Url: https://boxes.hackerspace-bamberg.de/Console2?FingerJoint_style=rectangular&amp;FingerJoint_surroundingspaces=0.5&amp;FingerJoint_bottom_lip=0.0&amp;FingerJoint_edge_width=1.0&amp;FingerJoint_extra_length=0.0&amp;FingerJoint_finger=2.0&amp;FingerJoint_play=0.0&amp;FingerJoint_space=2.0&amp;FingerJoint_width=1.0&amp;Stackable_angle=60&amp;Stackable_bottom_stabilizers=0.0&amp;Stackable_height=2.0&amp;Stackable_holedistance=1.0&amp;Stackable_width=4.0&amp;x=300&amp;y=150&amp;h=100&amp;bottom_edge=h&amp;outside=0&amp;outside=1&amp;front_height=10&amp;angle=25&amp;removable_backwall=0&amp;removable_backwall=1&amp;removable_panel=0&amp;glued_panel=0&amp;thickness=6&amp;format=svg&amp;tabs=0.0&amp;qr_code=0&amp;debug=0&amp;labels=0&amp;labels=1&amp;reference=100.0&amp;inner_corners=loop&amp;burn=0.1&amp;language=fr&amp;render=2
Url short: https://boxes.hackerspace-bamberg.de/Console2?x=300&amp;y=150&amp;bottom_edge=h&amp;outside=0&amp;outside=1&amp;front_height=10&amp;angle=25&amp;removable_panel=0&amp;glued_panel=0&amp;thickness=6
SettingsUrl: https://boxes.hackerspace-bamberg.de/Console2?FingerJoint_style=rectangular&amp;FingerJoint_surroundingspaces=0.5&amp;FingerJoint_bottom_lip=0.0&amp;FingerJoint_edge_width=1.0&amp;FingerJoint_extra_length=0.0&amp;FingerJoint_finger=2.0&amp;FingerJoint_play=0.0&amp;FingerJoint_space=2.0&amp;FingerJoint_width=1.0&amp;Stackable_angle=60&amp;Stackable_bottom_stabilizers=0.0&amp;Stackable_height=2.0&amp;Stackable_holedistance=1.0&amp;Stackable_width=4.0&amp;x=300&amp;y=150&amp;h=100&amp;bottom_edge=h&amp;outside=0&amp;outside=1&amp;front_height=10&amp;angle=25&amp;removable_backwall=0&amp;removable_backwall=1&amp;removable_panel=0&amp;glued_panel=0&amp;thickness=6&amp;format=svg&amp;tabs=0.0&amp;qr_code=0&amp;debug=0&amp;labels=0&amp;labels=1&amp;reference=100.0&amp;inner_corners=loop&amp;burn=0.1&amp;language=fr&amp;render=2
SettingsUrl short: https://boxes.hackerspace-bamberg.de/Console2?x=300&amp;y=150&amp;bottom_edge=h&amp;outside=0&amp;outside=1&amp;front_height=10&amp;angle=25&amp;removable_panel=0&amp;glued_panel=0&amp;thickness=6
</dc:description>
</cc:Work></rdf:RDF></metadata>
<g id="p-0" style="fill:none;stroke-linecap:round;stroke-linejoin:round;">
  <path d="M 10.100 323.400 H 110.100 V 313.400 H 10.100 V 323.400 Z" stroke="rgb(0,0,0)" stroke-width="0.20" />
  <text dominant-baseline="hanging" font-size="6px" style="font-family: sans-serif ; font-weight: normal; font-style: normal; fill: rgb(255,0,0)" text-anchor="middle" transform="matrix( 1.000 0.000 0.000 1.000 60.100 315.400 )">100.0mm, burn:0.10mm</text>
</g>
<g id="p-1" style="fill:none;stroke-linecap:round;stroke-linejoin:round;">
  <path d="M 25.100 304.000 H 19.200 C 19.100 304.000 19.200 304.100 19.200 304.000 V 298.200 C 19.200 298.100 19.100 298.200 19.200 298.200 H 31.000 C 31.100 298.200 31.000 298.100 31.000 298.200 V 304.000 C 31.000 304.100 31.100 304.000 31.000 304.000 H 25.100 Z" stroke="rgb(0,0,255)" stroke-width="0.20" />
  <path d="M 49.100 304.000 H 43.200 C 43.100 304.000 43.200 304.100 43.200 304.000 V 298.200 C 43.200 298.100 43.100 298.200 43.200 298.200 H 55.000 C 55.100 298.200 55.000 298.100 55.000 298.200 V 304.000 C 55.000 304.100 55.100 304.000 55.000 304.000 H 49.100 Z" stroke="rgb(0,0,255)" stroke-width="0.20" />
  <path d="M 73.100 304.000 H 67.200 C 67.100 304.000 67.200 304.100 67.200 304.000 V 298.200 C 67.200 298.100 67.100 298.200 67.200 298.200 H 79.000 C 79.100 298.200 79.000 298.100 79.000 298.200 V 304.000 C 79.000 304.100 79.100 304.000 79.000 304.000 H 73.100 Z" stroke="rgb(0,0,255)" stroke-width="0.20" />
  <path d="M 97.100 304.000 H 91.200 C 91.100 304.000 91.200 304.100 91.200 304.000 V 298.200 C 91.200 298.100 91.100 298.200 91.200 298.200 H 103.000 C 103.100 298.200 103.000 298.100 103.000 298.200 V 304.000 C 103.000 304.100 103.100 304.000 103.000 304.000 H 97.100 Z" stroke="rgb(0,0,255)" stroke-width="0.20" />
  <path d="M 121.100 304.000 H 115.200 C 115.100 304.000 115.200 304.100 115.200 304.000 V 298.200 C 115.200 298.100 115.100 298.200 115.200 298.200 H 127.000 C 127.100 298.200 127.000 298.100 127.000 298.200 V 304.000 C 127.000 304.100 127.100 304.000 127.000 304.000 H 121.100 Z" stroke="rgb(0,0,255)" stroke-width="0.20" />
  <path d="M 145.100 304.000 H 139.200 C 139.100 304.000 139.200 304.100 139.200 304.000 V 298.200 C 139.200 298.100 139.100 298.200 139.200 298.200 H 151.000 C 151.100 298.200 151.000 298.100 151.000 298.200 V 304.000 C 151.000 304.100 151.100 304.000 151.000 304.000 H 145.100 Z" stroke="rgb(0,0,255)" stroke-width="0.20" />
  <text dominant-baseline="hanging" font-size="4px" style="font-family: sans-serif ; font-weight: normal; font-style: normal; fill: rgb(255,0,0)" text-anchor="middle" transform="matrix( 1.000 0.000 0.000 1.000 85.100 262.025 )">Left Side</text><path d="M 16.100 310.200 H 154.100 C 154.155 310.200 154.200 310.155 154.200 310.100 V 306.059 C 154.200 305.959 154.100 306.059 154.200 306.059 H 160.100 C 160.155 306.059 160.200 306.015 160.200 305.959 V 297.678 C 160.200 297.623 160.155 297.578 160.100 297.578 H 154.200 C 154.100 297.578 154.200 297.678 154.200 297.578 V 293.538 V 288.100 C 154.200 288.061 154.177 288.026 154.142 288.009 L 145.049 283.769 C 144.959 283.727 145.007 283.860 145.049 283.769 L 147.543 278.422 C 147.566 278.372 147.544 278.312 147.494 278.289 L 136.619 273.218 C 136.569 273.194 136.509 273.216 136.486 273.266 L 133.992 278.613 C 133.950 278.704 134.083 278.656 133.992 278.613 L 123.298 273.626 C 123.207 273.584 123.256 273.717 123.298 273.626 L 125.791 268.279 C 125.815 268.229 125.793 268.170 125.743 268.146 L 114.867 263.075 C 114.817 263.052 114.758 263.073 114.734 263.123 L 112.241 268.470 C 112.199 268.561 112.331 268.513 112.241 268.470 L 101.546 263.484 C 101.456 263.441 101.504 263.574 101.546 263.484 L 104.040 258.136 C 104.063 258.086 104.042 258.027 103.992 258.003 L 93.116 252.932 C 93.066 252.909 93.006 252.930 92.983 252.980 L 90.489 258.328 C 90.447 258.418 90.580 258.370 90.489 258.328 L 79.795 253.341 C 79.704 253.298 79.753 253.431 79.795 253.341 L 82.288 247.993 C 82.312 247.943 82.290 247.884 82.240 247.861 L 71.364 242.789 C 71.314 242.766 71.255 242.787 71.232 242.838 L 68.738 248.185 C 68.696 248.275 68.829 248.227 68.738 248.185 L 58.044 243.198 C 57.953 243.156 58.001 243.288 58.044 243.198 L 60.537 237.851 C 60.560 237.801 60.539 237.741 60.489 237.718 L 49.613 232.646 C 49.563 232.623 49.503 232.645 49.480 232.695 L 46.987 238.042 C 46.944 238.133 47.077 238.084 46.987 238.042 L 36.292 233.055 C 36.202 233.013 36.250 233.146 36.292 233.055 L 38.786 227.708 C 38.809 227.658 38.787 227.598 38.737 227.575 L 27.862 222.503 C 27.812 222.480 27.752 222.502 27.729 222.552 L 25.235 227.899 C 25.193 227.990 25.326 227.941 25.235 227.899 L 16.142 223.659 C 16.127 223.652 16.110 223.649 16.093 223.650 C 16.077 223.651 16.060 223.656 16.046 223.665 C 16.032 223.674 16.020 223.687 16.012 223.701 C 16.004 223.716 16.000 223.733 16.000 223.750 V 292.100 V 295.000 C 16.000 295.100 16.100 295.000 16.000 295.000 H 10.100 C 10.045 295.000 10.000 295.045 10.000 295.100 V 307.100 C 10.000 307.155 10.045 307.200 10.100 307.200 H 16.000 C 16.100 307.200 16.000 307.100 16.000 307.200 V 310.100 C 16.000 310.155 16.045 310.200 16.100 310.200" stroke="rgb(0,0,0)" stroke-width="0.20" />
  <path d="M 22.100 259.750 V 256.550 C 22.100 256.450 22.000 256.550 22.100 256.550 H 28.500 C 28.600 256.550 28.500 256.450 28.500 256.550 V 262.950 C 28.500 263.050 28.600 262.950 28.500 262.950 H 22.100 C 22.000 262.950 22.100 263.050 22.100 262.950 V 259.750 Z" stroke="rgb(0,0,255)" stroke-width="0.20" />
</g>
<g id="p-2" style="fill:none;stroke-linecap:round;stroke-linejoin:round;">
  <path d="M 178.300 304.000 H 172.400 C 172.300 304.000 172.400 304.100 172.400 304.000 V 298.200 C 172.400 298.100 172.300 298.200 172.400 298.200 H 184.200 C 184.300 298.200 184.200 298.100 184.200 298.200 V 304.000 C 184.200 304.100 184.300 304.000 184.200 304.000 H 178.300 Z" stroke="rgb(0,0,255)" stroke-width="0.20" />
  <path d="M 202.300 304.000 H 196.400 C 196.300 304.000 196.400 304.100 196.400 304.000 V 298.200 C 196.400 298.100 196.300 298.200 196.400 298.200 H 208.200 C 208.300 298.200 208.200 298.100 208.200 298.200 V 304.000 C 208.200 304.100 208.300 304.000 208.200 304.000 H 202.300 Z" stroke="rgb(0,0,255)" stroke-width="0.20" />
  <path d="M 226.300 304.000 H 220.400 C 220.300 304.000 220.400 304.100 220.400 304.000 V 298.200 C 220.400 298.100 220.300 298.200 220.400 298.200 H 232.200 C 232.300 298.200 232.200 298.100 232.200 298.200 V 304.000 C 232.200 304.100 232.300 304.000 232.200 304.000 H 226.300 Z" stroke="rgb(0,0,255)" stroke-width="0.20" />
  <path d="M 250.300 304.000 H 244.400 C 244.300 304.000 244.400 304.100 244.400 304.000 V 298.200 C 244.400 298.100 244.300 298.200 244.400 298.200 H 256.200 C 256.300 298.200 256.200 298.100 256.200 298.200 V 304.000 C 256.200 304.100 256.300 304.000 256.200 304.000 H 250.300 Z" stroke="rgb(0,0,255)" stroke-width="0.20" />
  <path d="M 274.300 304.000 H 268.400 C 268.300 304.000 268.400 304.100 268.400 304.000 V 298.200 C 268.400 298.100 268.300 298.200 268.400 298.200 H 280.200 C 280.300 298.200 280.200 298.100 280.200 298.200 V 304.000 C 280.200 304.100 280.300 304.000 280.200 304.000 H 274.300 Z" stroke="rgb(0,0,255)" stroke-width="0.20" />
  <path d="M 298.300 304.000 H 292.400 C 292.300 304.000 292.400 304.100 292.400 304.000 V 298.200 C 292.400 298.100 292.300 298.200 292.400 298.200 H 304.200 C 304.300 298.200 304.200 298.100 304.200 298.200 V 304.000 C 304.200 304.100 304.300 304.000 304.200 304.000 H 298.300 Z" stroke="rgb(0,0,255)" stroke-width="0.20" />
  <text dominant-baseline="hanging" font-size="4px" style="font-family: sans-serif ; font-weight: normal; font-style: normal; fill: rgb(255,0,0)" text-anchor="middle" transform="matrix( 1.000 0.000 0.000 1.000 238.300 262.025 )">Right Side</text><path d="M 169.300 310.200 H 307.300 C 307.355 310.200 307.400 310.155 307.400 310.100 V 306.059 C 307.400 305.959 307.300 306.059 307.400 306.059 H 313.300 C 313.355 306.059 313.400 306.015 313.400 305.959 V 297.678 C 313.400 297.623 313.355 297.578 313.300 297.578 H 307.400 C 307.300 297.578 307.400 297.678 307.400 297.578 V 293.538 V 288.100 C 307.400 288.061 307.377 288.026 307.342 288.009 L 298.249 283.769 C 298.159 283.727 298.207 283.860 298.249 283.769 L 300.743 278.422 C 300.766 278.372 300.744 278.312 300.694 278.289 L 289.819 273.218 C 289.769 273.194 289.709 273.216 289.686 273.266 L 287.192 278.613 C 287.150 278.704 287.283 278.656 287.192 278.613 L 276.498 273.626 C 276.407 273.584 276.456 273.717 276.498 273.626 L 278.991 268.279 C 279.015 268.229 278.993 268.170 278.943 268.146 L 268.067 263.075 C 268.017 263.052 267.958 263.073 267.934 263.123 L 265.441 268.470 C 265.399 268.561 265.531 268.513 265.441 268.470 L 254.746 263.484 C 254.656 263.441 254.704 263.574 254.746 263.484 L 257.240 258.136 C 257.263 258.086 257.242 258.027 257.192 258.003 L 246.316 252.932 C 246.266 252.909 246.206 252.930 246.183 252.980 L 243.689 258.328 C 243.647 258.418 243.780 258.370 243.689 258.328 L 232.995 253.341 C 232.904 253.298 232.953 253.431 232.995 253.341 L 235.488 247.993 C 235.512 247.943 235.490 247.884 235.440 247.861 L 224.564 242.789 C 224.514 242.766 224.455 242.787 224.432 242.838 L 221.938 248.185 C 221.896 248.275 222.029 248.227 221.938 248.185 L 211.244 243.198 C 211.153 243.156 211.201 243.288 211.244 243.198 L 213.737 237.851 C 213.760 237.801 213.739 237.741 213.689 237.718 L 202.813 232.646 C 202.763 232.623 202.703 232.645 202.680 232.695 L 200.187 238.042 C 200.144 238.133 200.277 238.084 200.187 238.042 L 189.492 233.055 C 189.402 233.013 189.450 233.146 189.492 233.055 L 191.986 227.708 C 192.009 227.658 191.987 227.598 191.937 227.575 L 181.062 222.503 C 181.012 222.480 180.952 222.502 180.929 222.552 L 178.435 227.899 C 178.393 227.990 178.526 227.941 178.435 227.899 L 169.342 223.659 C 169.327 223.652 169.310 223.649 169.293 223.650 C 169.277 223.651 169.260 223.656 169.246 223.665 C 169.232 223.674 169.220 223.687 169.212 223.701 C 169.204 223.716 169.200 223.733 169.200 223.750 V 292.100 V 295.000 C 169.200 295.100 169.300 295.000 169.200 295.000 H 163.300 C 163.245 295.000 163.200 295.045 163.200 295.100 V 307.100 C 163.200 307.155 163.245 307.200 163.300 307.200 H 169.200 C 169.300 307.200 169.200 307.100 169.200 307.200 V 310.100 C 169.200 310.155 169.245 310.200 169.300 310.200" stroke="rgb(0,0,0)" stroke-width="0.20" />
  <path d="M 175.300 259.750 V 256.550 C 175.300 256.450 175.200 256.550 175.300 256.550 H 181.700 C 181.800 256.550 181.700 256.450 181.700 256.550 V 262.950 C 181.700 263.050 181.800 262.950 181.700 262.950 H 175.300 C 175.200 262.950 175.300 263.050 175.300 262.950 V 259.750 Z" stroke="rgb(0,0,255)" stroke-width="0.20" />
</g>
<g id="p-3" style="fill:none;stroke-linecap:round;stroke-linejoin:round;">
  <text dominant-baseline="hanging" font-size="4px" style="font-family: sans-serif ; font-weight: normal; font-style: normal; fill: rgb(255,0,0)" text-anchor="middle" transform="matrix( 1.000 0.000 0.000 1.000 391.500 158.200 )">Floor</text><path d="M 322.500 304.200 H 325.400 C 325.500 304.200 325.400 304.100 325.400 304.200 V 310.100 C 325.400 310.155 325.445 310.200 325.500 310.200 H 337.500 C 337.555 310.200 337.600 310.155 337.600 310.100 V 304.200 C 337.600 304.100 337.500 304.200 337.600 304.200 H 349.400 C 349.500 304.200 349.400 304.100 349.400 304.200 V 310.100 C 349.400 310.155 349.445 310.200 349.500 310.200 H 361.500 C 361.555 310.200 361.600 310.155 361.600 310.100 V 304.200 C 361.600 304.100 361.500 304.200 361.600 304.200 H 373.400 C 373.500 304.200 373.400 304.100 373.400 304.200 V 310.100 C 373.400 310.155 373.445 310.200 373.500 310.200 H 385.500 C 385.555 310.200 385.600 310.155 385.600 310.100 V 304.200 C 385.600 304.100 385.500 304.200 385.600 304.200 H 397.400 C 397.500 304.200 397.400 304.100 397.400 304.200 V 310.100 C 397.400 310.155 397.445 310.200 397.500 310.200 H 409.500 C 409.555 310.200 409.600 310.155 409.600 310.100 V 304.200 C 409.600 304.100 409.500 304.200 409.600 304.200 H 421.400 C 421.500 304.200 421.400 304.100 421.400 304.200 V 310.100 C 421.400 310.155 421.445 310.200 421.500 310.200 H 433.500 C 433.555 310.200 433.600 310.155 433.600 310.100 V 304.200 C 433.600 304.100 433.500 304.200 433.600 304.200 H 445.400 C 445.500 304.200 445.400 304.100 445.400 304.200 V 310.100 C 445.400 310.155 445.445 310.200 445.500 310.200 H 457.500 C 457.555 310.200 457.600 310.155 457.600 310.100 V 304.200 C 457.600 304.100 457.500 304.200 457.600 304.200 H 460.500 C 460.555 304.200 460.600 304.155 460.600 304.100 V 298.200 C 460.600 298.100 460.500 298.200 460.600 298.200 H 466.500 C 466.555 298.200 466.600 298.155 466.600 298.100 V 286.100 C 466.600 286.045 466.555 286.000 466.500 286.000 H 460.600 C 460.500 286.000 460.600 286.100 460.600 286.000 V 274.200 C 460.600 274.100 460.500 274.200 460.600 274.200 H 466.500 C 466.555 274.200 466.600 274.155 466.600 274.100 V 262.100 C 466.600 262.045 466.555 262.000 466.500 262.000 H 460.600 C 460.500 262.000 460.600 262.100 460.600 262.000 V 250.200 C 460.600 250.100 460.500 250.200 460.600 250.200 H 466.500 C 466.555 250.200 466.600 250.155 466.600 250.100 V 238.100 C 466.600 238.045 466.555 238.000 466.500 238.000 H 460.600 C 460.500 238.000 460.600 238.100 460.600 238.000 V 226.200 C 460.600 226.100 460.500 226.200 460.600 226.200 H 466.500 C 466.555 226.200 466.600 226.155 466.600 226.100 V 214.100 C 466.600 214.045 466.555 214.000 466.500 214.000 H 460.600 C 460.500 214.000 460.600 214.100 460.600 214.000 V 202.200 C 460.600 202.100 460.500 202.200 460.600 202.200 H 466.500 C 466.555 202.200 466.600 202.155 466.600 202.100 V 190.100 C 466.600 190.045 466.555 190.000 466.500 190.000 H 460.600 C 460.500 190.000 460.600 190.100 460.600 190.000 V 178.200 C 460.600 178.100 460.500 178.200 460.600 178.200 H 466.500 C 466.555 178.200 466.600 178.155 466.600 178.100 V 166.100 C 466.600 166.045 466.555 166.000 466.500 166.000 H 460.600 C 460.500 166.000 460.600 166.100 460.600 166.000 V 154.200 C 460.600 154.100 460.500 154.200 460.600 154.200 H 466.500 C 466.555 154.200 466.600 154.155 466.600 154.100 V 142.100 C 466.600 142.045 466.555 142.000 466.500 142.000 H 460.600 C 460.500 142.000 460.600 142.100 460.600 142.000 V 130.200 C 460.600 130.100 460.500 130.200 460.600 130.200 H 466.500 C 466.555 130.200 466.600 130.155 466.600 130.100 V 118.100 C 466.600 118.045 466.555 118.000 466.500 118.000 H 460.600 C 460.500 118.000 460.600 118.100 460.600 118.000 V 106.200 C 460.600 106.100 460.500 106.200 460.600 106.200 H 466.500 C 466.555 106.200 466.600 106.155 466.600 106.100 V 94.100 C 466.600 94.045 466.555 94.000 466.500 94.000 H 460.600 C 460.500 94.000 460.600 94.100 460.600 94.000 V 82.200 C 460.600 82.100 460.500 82.200 460.600 82.200 H 466.500 C 466.555 82.200 466.600 82.155 466.600 82.100 V 70.100 C 466.600 70.045 466.555 70.000 466.500 70.000 H 460.600 C 460.500 70.000 460.600 70.100 460.600 70.000 V 58.200 C 460.600 58.100 460.500 58.200 460.600 58.200 H 466.500 C 466.555 58.200 466.600 58.155 466.600 58.100 V 46.100 C 466.600 46.045 466.555 46.000 466.500 46.000 H 460.600 C 460.500 46.000 460.600 46.100 460.600 46.000 V 34.200 C 460.600 34.100 460.500 34.200 460.600 34.200 H 466.500 C 466.555 34.200 466.600 34.155 466.600 34.100 V 22.100 C 466.600 22.045 466.555 22.000 466.500 22.000 H 460.600 C 460.500 22.000 460.600 22.100 460.600 22.000 V 16.100 C 460.600 16.045 460.555 16.000 460.500 16.000 H 457.600 C 457.500 16.000 457.600 16.100 457.600 16.000 V 10.100 C 457.600 10.045 457.555 10.000 457.500 10.000 H 445.500 C 445.445 10.000 445.400 10.045 445.400 10.100 V 16.000 C 445.400 16.100 445.500 16.000 445.400 16.000 H 433.600 C 433.500 16.000 433.600 16.100 433.600 16.000 V 10.100 C 433.600 10.045 433.555 10.000 433.500 10.000 H 421.500 C 421.445 10.000 421.400 10.045 421.400 10.100 V 16.000 C 421.400 16.100 421.500 16.000 421.400 16.000 H 409.600 C 409.500 16.000 409.600 16.100 409.600 16.000 V 10.100 C 409.600 10.045 409.555 10.000 409.500 10.000 H 397.500 C 397.445 10.000 397.400 10.045 397.400 10.100 V 16.000 C 397.400 16.100 397.500 16.000 397.400 16.000 H 385.600 C 385.500 16.000 385.600 16.100 385.600 16.000 V 10.100 C 385.600 10.045 385.555 10.000 385.500 10.000 H 373.500 C 373.445 10.000 373.400 10.045 373.400 10.100 V 16.000 C 373.400 16.100 373.500 16.000 373.400 16.000 H 361.600 C 361.500 16.000 361.600 16.100 361.600 16.000 V 10.100 C 361.600 10.045 361.555 10.000 361.500 10.000 H 349.500 C 349.445 10.000 349.400 10.045 349.400 10.100 V 16.000 C 349.400 16.100 349.500 16.000 349.400 16.000 H 337.600 C 337.500 16.000 337.600 16.100 337.600 16.000 V 10.100 C 337.600 10.045 337.555 10.000 337.500 10.000 H 325.500 C 325.445 10.000 325.400 10.045 325.400 10.100 V 16.000 C 325.400 16.100 325.500 16.000 325.400 16.000 H 322.500 C 322.445 16.000 322.400 16.045 322.400 16.100 V 22.000 C 322.400 22.100 322.500 22.000 322.400 22.000 H 316.500 C 316.445 22.000 316.400 22.045 316.400 22.100 V 34.100 C 316.400 34.155 316.445 34.200 316.500 34.200 H 322.400 C 322.500 34.200 322.400 34.100 322.400 34.200 V 46.000 C 322.400 46.100 322.500 46.000 322.400 46.000 H 316.500 C 316.445 46.000 316.400 46.045 316.400 46.100 V 58.100 C 316.400 58.155 316.445 58.200 316.500 58.200 H 322.400 C 322.500 58.200 322.400 58.100 322.400 58.200 V 70.000 C 322.400 70.100 322.500 70.000 322.400 70.000 H 316.500 C 316.445 70.000 316.400 70.045 316.400 70.100 V 82.100 C 316.400 82.155 316.445 82.200 316.500 82.200 H 322.400 C 322.500 82.200 322.400 82.100 322.400 82.200 V 94.000 C 322.400 94.100 322.500 94.000 322.400 94.000 H 316.500 C 316.445 94.000 316.400 94.045 316.400 94.100 V 106.100 C 316.400 106.155 316.445 106.200 316.500 106.200 H 322.400 C 322.500 106.200 322.400 106.100 322.400 106.200 V 118.000 C 322.400 118.100 322.500 118.000 322.400 118.000 H 316.500 C 316.445 118.000 316.400 118.045 316.400 118.100 V 130.100 C 316.400 130.155 316.445 130.200 316.500 130.200 H 322.400 C 322.500 130.200 322.400 130.100 322.400 130.200 V 142.000 C 322.400 142.100 322.500 142.000 322.400 142.000 H 316.500 C 316.445 142.000 316.400 142.045 316.400 142.100 V 154.100 C 316.400 154.155 316.445 154.200 316.500 154.200 H 322.400 C 322.500 154.200 322.400 154.100 322.400 154.200 V 166.000 C 322.400 166.100 322.500 166.000 322.400 166.000 H 316.500 C 316.445 166.000 316.400 166.045 316.400 166.100 V 178.100 C 316.400 178.155 316.445 178.200 316.500 178.200 H 322.400 C 322.500 178.200 322.400 178.100 322.400 178.200 V 190.000 C 322.400 190.100 322.500 190.000 322.400 190.000 H 316.500 C 316.445 190.000 316.400 190.045 316.400 190.100 V 202.100 C 316.400 202.155 316.445 202.200 316.500 202.200 H 322.400 C 322.500 202.200 322.400 202.100 322.400 202.200 V 214.000 C 322.400 214.100 322.500 214.000 322.400 214.000 H 316.500 C 316.445 214.000 316.400 214.045 316.400 214.100 V 226.100 C 316.400 226.155 316.445 226.200 316.500 226.200 H 322.400 C 322.500 226.200 322.400 226.100 322.400 226.200 V 238.000 C 322.400 238.100 322.500 238.000 322.400 238.000 H 316.500 C 316.445 238.000 316.400 238.045 316.400 238.100 V 250.100 C 316.400 250.155 316.445 250.200 316.500 250.200 H 322.400 C 322.500 250.200 322.400 250.100 322.400 250.200 V 262.000 C 322.400 262.100 322.500 262.000 322.400 262.000 H 316.500 C 316.445 262.000 316.400 262.045 316.400 262.100 V 274.100 C 316.400 274.155 316.445 274.200 316.500 274.200 H 322.400 C 322.500 274.200 322.400 274.100 322.400 274.200 V 286.000 C 322.400 286.100 322.500 286.000 322.400 286.000 H 316.500 C 316.445 286.000 316.400 286.045 316.400 286.100 V 298.100 C 316.400 298.155 316.445 298.200 316.500 298.200 H 322.400 C 322.500 298.200 322.400 298.100 322.400 298.200 V 304.100 C 322.400 304.155 322.445 304.200 322.500 304.200" stroke="rgb(0,0,0)" stroke-width="0.20" />
</g>
<g id="p-4" style="fill:none;stroke-linecap:round;stroke-linejoin:round;">
  <text dominant-baseline="hanging" font-size="4px" style="font-family: sans-serif ; font-weight: normal; font-style: normal; fill: rgb(255,0,0)" text-anchor="middle" transform="matrix( 1.000 0.000 0.000 1.000 477.981 158.200 )">Front</text><path d="M 469.700 310.200 H 473.841 C 473.896 310.200 473.941 310.155 473.941 310.100 V 304.200 C 473.941 304.100 473.841 304.200 473.941 304.200 H 482.022 C 482.122 304.200 482.022 304.100 482.022 304.200 V 310.100 C 482.022 310.155 482.066 310.200 482.122 310.200 H 486.262 C 486.317 310.200 486.362 310.155 486.362 310.100 V 304.100 V 16.100 V 10.100 C 486.362 10.045 486.317 10.000 486.262 10.000 H 482.122 C 482.066 10.000 482.022 10.045 482.022 10.100 V 16.000 C 482.022 16.100 482.122 16.000 482.022 16.000 H 473.941 C 473.841 16.000 473.941 16.100 473.941 16.000 V 10.100 C 473.941 10.045 473.896 10.000 473.841 10.000 H 469.700 C 469.645 10.000 469.600 10.045 469.600 10.100 V 16.100 V 304.100 V 310.100 C 469.600 310.155 469.645 310.200 469.700 310.200" stroke="rgb(0,0,0)" stroke-width="0.20" />
  <path d="M 475.800 28.100 V 22.200 C 475.800 22.100 475.700 22.200 475.800 22.200 H 481.600 C 481.700 22.200 481.600 22.100 481.600 22.200 V 34.000 C 481.600 34.100 481.700 34.000 481.600 34.000 H 475.800 C 475.700 34.000 475.800 34.100 475.800 34.000 V 28.100 Z" stroke="rgb(0,0,255)" stroke-width="0.20" />
  <path d="M 475.800 52.100 V 46.200 C 475.800 46.100 475.700 46.200 475.800 46.200 H 481.600 C 481.700 46.200 481.600 46.100 481.600 46.200 V 58.000 C 481.600 58.100 481.700 58.000 481.600 58.000 H 475.800 C 475.700 58.000 475.800 58.100 475.800 58.000 V 52.100 Z" stroke="rgb(0,0,255)" stroke-width="0.20" />
  <path d="M 475.800 76.100 V 70.200 C 475.800 70.100 475.700 70.200 475.800 70.200 H 481.600 C 481.700 70.200 481.600 70.100 481.600 70.200 V 82.000 C 481.600 82.100 481.700 82.000 481.600 82.000 H 475.800 C 475.700 82.000 475.800 82.100 475.800 82.000 V 76.100 Z" stroke="rgb(0,0,255)" stroke-width="0.20" />
  <path d="M 475.800 100.100 V 94.200 C 475.800 94.100 475.700 94.200 475.800 94.200 H 481.600 C 481.700 94.200 481.600 94.100 481.600 94.200 V 106.000 C 481.600 106.100 481.700 106.000 481.600 106.000 H 475.800 C 475.700 106.000 475.800 106.100 475.800 106.000 V 100.100 Z" stroke="rgb(0,0,255)" stroke-width="0.20" />
  <path d="M 475.800 124.100 V 118.200 C 475.800 118.100 475.700 118.200 475.800 118.200 H 481.600 C 481.700 118.200 481.600 118.100 481.600 118.200 V 130.000 C 481.600 130.100 481.700 130.000 481.600 130.000 H 475.800 C 475.700 130.000 475.800 130.100 475.800 130.000 V 124.100 Z" stroke="rgb(0,0,255)" stroke-width="0.20" />
  <path d="M 475.800 148.100 V 142.200 C 475.800 142.100 475.700 142.200 475.800 142.200 H 481.600 C 481.700 142.200 481.600 142.100 481.600 142.200 V 154.000 C 481.600 154.100 481.700 154.000 481.600 154.000 H 475.800 C 475.700 154.000 475.800 154.100 475.800 154.000 V 148.100 Z" stroke="rgb(0,0,255)" stroke-width="0.20" />
  <path d="M 475.800 172.100 V 166.200 C 475.800 166.100 475.700 166.200 475.800 166.200 H 481.600 C 481.700 166.200 481.600 166.100 481.600 166.200 V 178.000 C 481.600 178.100 481.700 178.000 481.600 178.000 H 475.800 C 475.700 178.000 475.800 178.100 475.800 178.000 V 172.100 Z" stroke="rgb(0,0,255)" stroke-width="0.20" />
  <path d="M 475.800 196.100 V 190.200 C 475.800 190.100 475.700 190.200 475.800 190.200 H 481.600 C 481.700 190.200 481.600 190.100 481.600 190.200 V 202.000 C 481.600 202.100 481.700 202.000 481.600 202.000 H 475.800 C 475.700 202.000 475.800 202.100 475.800 202.000 V 196.100 Z" stroke="rgb(0,0,255)" stroke-width="0.20" />
  <path d="M 475.800 220.100 V 214.200 C 475.800 214.100 475.700 214.200 475.800 214.200 H 481.600 C 481.700 214.200 481.600 214.100 481.600 214.200 V 226.000 C 481.600 226.100 481.700 226.000 481.600 226.000 H 475.800 C 475.700 226.000 475.800 226.100 475.800 226.000 V 220.100 Z" stroke="rgb(0,0,255)" stroke-width="0.20" />
  <path d="M 475.800 244.100 V 238.200 C 475.800 238.100 475.700 238.200 475.800 238.200 H 481.600 C 481.700 238.200 481.600 238.100 481.600 238.200 V 250.000 C 481.600 250.100 481.700 250.000 481.600 250.000 H 475.800 C 475.700 250.000 475.800 250.100 475.800 250.000 V 244.100 Z" stroke="rgb(0,0,255)" stroke-width="0.20" />
  <path d="M 475.800 268.100 V 262.200 C 475.800 262.100 475.700 262.200 475.800 262.200 H 481.600 C 481.700 262.200 481.600 262.100 481.600 262.200 V 274.000 C 481.600 274.100 481.700 274.000 481.600 274.000 H 475.800 C 475.700 274.000 475.800 274.100 475.800 274.000 V 268.100 Z" stroke="rgb(0,0,255)" stroke-width="0.20" />
  <path d="M 475.800 292.100 V 286.200 C 475.800 286.100 475.700 286.200 475.800 286.200 H 481.600 C 481.700 286.200 481.600 286.100 481.600 286.200 V 298.000 C 481.600 298.100 481.700 298.000 481.600 298.000 H 475.800 C 475.700 298.000 475.800 298.100 475.800 298.000 V 292.100 Z" stroke="rgb(0,0,255)" stroke-width="0.20" />
</g>
<g id="p-5" style="fill:none;stroke-linecap:round;stroke-linejoin:round;">
  <text dominant-baseline="hanging" font-size="4px" style="font-family: sans-serif ; font-weight: normal; font-style: normal; fill: rgb(255,0,0)" text-anchor="middle" transform="matrix( 1.000 0.000 0.000 1.000 571.595 158.200 )">Panel</text><path d="M 495.462 310.200 H 505.595 C 505.650 310.200 505.695 310.155 505.695 310.100 V 304.200 C 505.695 304.100 505.595 304.200 505.695 304.200 H 517.495 C 517.595 304.200 517.495 304.100 517.495 304.200 V 310.100 C 517.495 310.155 517.540 310.200 517.595 310.200 H 529.595 C 529.650 310.200 529.695 310.155 529.695 310.100 V 304.200 C 529.695 304.100 529.595 304.200 529.695 304.200 H 541.495 C 541.595 304.200 541.495 304.100 541.495 304.200 V 310.100 C 541.495 310.155 541.540 310.200 541.595 310.200 H 553.595 C 553.650 310.200 553.695 310.155 553.695 310.100 V 304.200 C 553.695 304.100 553.595 304.200 553.695 304.200 H 565.495 C 565.595 304.200 565.495 304.100 565.495 304.200 V 310.100 C 565.495 310.155 565.540 310.200 565.595 310.200 H 577.595 C 577.650 310.200 577.695 310.155 577.695 310.100 V 304.200 C 577.695 304.100 577.595 304.200 577.695 304.200 H 589.495 C 589.595 304.200 589.495 304.100 589.495 304.200 V 310.100 C 589.495 310.155 589.540 310.200 589.595 310.200 H 601.595 C 601.650 310.200 601.695 310.155 601.695 310.100 V 304.200 C 601.695 304.100 601.595 304.200 601.695 304.200 H 613.495 C 613.595 304.200 613.495 304.100 613.495 304.200 V 310.100 C 613.495 310.155 613.540 310.200 613.595 310.200 H 625.595 C 625.650 310.200 625.695 310.155 625.695 310.100 V 304.200 C 625.695 304.100 625.595 304.200 625.695 304.200 H 637.495 C 637.595 304.200 637.495 304.100 637.495 304.200 V 310.100 C 637.495 310.155 637.540 310.200 637.595 310.200 H 647.728 H 653.728 C 653.784 310.200 653.828 310.155 653.828 310.100 V 304.100 V 16.100 V 10.100 C 653.828 10.045 653.784 10.000 653.728 10.000 H 647.728 H 637.595 C 637.540 10.000 637.495 10.045 637.495 10.100 V 16.000 C 637.495 16.100 637.595 16.000 637.495 16.000 H 625.695 C 625.595 16.000 625.695 16.100 625.695 16.000 V 10.100 C 625.695 10.045 625.650 10.000 625.595 10.000 H 613.595 C 613.540 10.000 613.495 10.045 613.495 10.100 V 16.000 C 613.495 16.100 613.595 16.000 613.495 16.000 H 601.695 C 601.595 16.000 601.695 16.100 601.695 16.000 V 10.100 C 601.695 10.045 601.650 10.000 601.595 10.000 H 589.595 C 589.540 10.000 589.495 10.045 589.495 10.100 V 16.000 C 589.495 16.100 589.595 16.000 589.495 16.000 H 577.695 C 577.595 16.000 577.695 16.100 577.695 16.000 V 10.100 C 577.695 10.045 577.650 10.000 577.595 10.000 H 565.595 C 565.540 10.000 565.495 10.045 565.495 10.100 V 16.000 C 565.495 16.100 565.595 16.000 565.495 16.000 H 553.695 C 553.595 16.000 553.695 16.100 553.695 16.000 V 10.100 C 553.695 10.045 553.650 10.000 553.595 10.000 H 541.595 C 541.540 10.000 541.495 10.045 541.495 10.100 V 16.000 C 541.495 16.100 541.595 16.000 541.495 16.000 H 529.695 C 529.595 16.000 529.695 16.100 529.695 16.000 V 10.100 C 529.695 10.045 529.650 10.000 529.595 10.000 H 517.595 C 517.540 10.000 517.495 10.045 517.495 10.100 V 16.000 C 517.495 16.100 517.595 16.000 517.495 16.000 H 505.695 C 505.595 16.000 505.695 16.100 505.695 16.000 V 10.100 C 505.695 10.045 505.650 10.000 505.595 10.000 H 495.462 H 489.462 C 489.407 10.000 489.362 10.045 489.362 10.100 V 16.100 V 304.100 V 310.100 C 489.362 310.155 489.407 310.200 489.462 310.200 H 495.462" stroke="rgb(0,0,0)" stroke-width="0.20" />
</g>
<g id="p-6" style="fill:none;stroke-linecap:round;stroke-linejoin:round;">
  <path d="M 692.928 292.100 H 684.028 C 683.928 292.100 684.028 292.200 684.028 292.100 V 286.300 C 684.028 286.200 683.928 286.300 684.028 286.300 H 689.628 C 689.684 286.300 689.728 286.255 689.728 286.200 V 274.200 C 689.728 274.145 689.684 274.100 689.628 274.100 H 684.028 C 683.928 274.100 684.028 274.200 684.028 274.100 V 268.300 C 684.028 268.200 683.928 268.300 684.028 268.300 H 701.828 C 701.928 268.300 701.828 268.200 701.828 268.300 V 274.100 C 701.828 274.200 701.928 274.100 701.828 274.100 H 696.228 C 696.173 274.100 696.128 274.145 696.128 274.200 V 286.200 C 696.128 286.255 696.173 286.300 696.228 286.300 H 701.828 C 701.928 286.300 701.828 286.200 701.828 286.300 V 292.100 C 701.828 292.200 701.928 292.100 701.828 292.100 H 692.928 Z" stroke="rgb(0,0,255)" stroke-width="0.20" />
  <text dominant-baseline="hanging" font-size="4px" style="font-family: sans-serif ; font-weight: normal; font-style: normal; fill: rgb(255,0,0)" text-anchor="middle" transform="matrix( 1.000 0.000 0.000 1.000 690.954 158.200 )">Back Wall</text><path d="M 656.928 310.200 H 724.979 C 725.034 310.200 725.079 310.155 725.079 310.100 V 304.100 V 16.100 V 10.100 C 725.079 10.045 725.034 10.000 724.979 10.000 H 656.928 C 656.873 10.000 656.828 10.045 656.828 10.100 V 16.100 V 304.100 V 310.100 C 656.828 310.155 656.873 310.200 656.928 310.200" stroke="rgb(0,0,0)" stroke-width="0.20" />
  <path d="M 717.954 298.200 H 721.366 C 721.466 298.200 721.366 298.100 721.366 298.200 V 304.000 C 721.366 304.100 721.466 304.000 721.366 304.000 H 714.541 C 714.441 304.000 714.541 304.100 714.541 304.000 V 298.200 C 714.541 298.100 714.441 298.200 714.541 298.200 H 717.954 Z" stroke="rgb(0,0,255)" stroke-width="0.20" />
  <path d="M 693.828 28.100 H 702.728 C 702.828 28.100 702.728 28.000 702.728 28.100 V 33.900 C 702.728 34.000 702.828 33.900 702.728 33.900 H 697.128 C 697.073 33.900 697.028 33.945 697.028 34.000 V 46.000 C 697.028 46.055 697.073 46.100 697.128 46.100 H 702.728 C 702.828 46.100 702.728 46.000 702.728 46.100 V 51.900 C 702.728 52.000 702.828 51.900 702.728 51.900 H 684.928 C 684.828 51.900 684.928 52.000 684.928 51.900 V 46.100 C 684.928 46.000 684.828 46.100 684.928 46.100 H 690.528 C 690.584 46.100 690.628 46.055 690.628 46.000 V 34.000 C 690.628 33.945 690.584 33.900 690.528 33.900 H 684.928 C 684.828 33.900 684.928 34.000 684.928 33.900 V 28.100 C 684.928 28.000 684.828 28.100 684.928 28.100 H 693.828 Z" stroke="rgb(0,0,255)" stroke-width="0.20" />
  <path d="M 718.254 22.000 H 714.841 C 714.741 22.000 714.841 22.100 714.841 22.000 V 16.200 C 714.841 16.100 714.741 16.200 714.841 16.200 H 721.666 C 721.766 16.200 721.666 16.100 721.666 16.200 V 22.000 C 721.666 22.100 721.766 22.000 721.666 22.000 H 718.254 Z" stroke="rgb(0,0,255)" stroke-width="0.20" />
</g>
<g id="p-7" style="fill:none;stroke-linecap:round;stroke-linejoin:round;">
  <text dominant-baseline="hanging" font-size="4px" style="font-family: sans-serif ; font-weight: normal; font-style: normal; fill: rgb(255,0,0)" text-anchor="middle" transform="matrix( 1.000 0.000 0.000 1.000 737.179 295.175 )">Guide</text><path d="M 734.179 310.200 H 746.179 C 746.234 310.200 746.279 310.155 746.279 310.100 V 304.100 V 290.050 V 284.050 C 746.279 283.994 746.234 283.950 746.179 283.950 H 734.179 C 734.124 283.950 734.079 283.994 734.079 284.050 V 290.050 V 293.462 C 734.079 293.562 734.179 293.462 734.079 293.462 H 728.179 C 728.124 293.462 728.079 293.507 728.079 293.562 V 300.587 C 728.079 300.643 728.124 300.687 728.179 300.687 H 734.079 C 734.179 300.687 734.079 300.587 734.079 300.687 V 304.100 V 310.100 C 734.079 310.155 734.124 310.200 734.179 310.200" stroke="rgb(0,0,0)" stroke-width="0.20" />
</g>
<g id="p-8" style="fill:none;stroke-linecap:round;stroke-linejoin:round;">
  <text dominant-baseline="hanging" font-size="4px" style="font-family: sans-serif ; font-weight: normal; font-style: normal; fill: rgb(255,0,0)" text-anchor="middle" transform="matrix( 1.000 0.000 0.000 1.000 758.379 295.175 )">Guide</text><path d="M 755.379 310.200 H 767.379 C 767.434 310.200 767.479 310.155 767.479 310.100 V 304.100 V 290.050 V 284.050 C 767.479 283.994 767.434 283.950 767.379 283.950 H 755.379 C 755.324 283.950 755.279 283.994 755.279 284.050 V 290.050 V 293.462 C 755.279 293.562 755.379 293.462 755.279 293.462 H 749.379 C 749.324 293.462 749.279 293.507 749.279 293.562 V 300.587 C 749.279 300.643 749.324 300.687 749.379 300.687 H 755.279 C 755.379 300.687 755.279 300.587 755.279 300.687 V 304.100 V 310.100 C 755.279 310.155 755.324 310.200 755.379 310.200" stroke="rgb(0,0,0)" stroke-width="0.20" />
</g>
<g id="p-9" style="fill:none;stroke-linecap:round;stroke-linejoin:round;">
  <text dominant-baseline="hanging" font-size="4px" style="font-family: sans-serif ; font-weight: normal; font-style: normal; fill: rgb(255,0,0)" text-anchor="middle" transform="matrix( 1.000 0.000 0.000 1.000 779.579 158.200 )">Bottom Back</text><path d="M 770.579 310.200 H 773.579 C 773.634 310.200 773.679 310.155 773.679 310.100 V 304.200 C 773.679 304.100 773.579 304.200 773.679 304.200 H 785.479 C 785.579 304.200 785.479 304.100 785.479 304.200 V 310.100 C 785.479 310.155 785.524 310.200 785.579 310.200 H 788.579 C 788.634 310.200 788.679 310.155 788.679 310.100 V 304.100 V 16.100 V 10.100 C 788.679 10.045 788.634 10.000 788.579 10.000 H 785.579 C 785.524 10.000 785.479 10.045 785.479 10.100 V 16.000 C 785.479 16.100 785.579 16.000 785.479 16.000 H 773.679 C 773.579 16.000 773.679 16.100 773.679 16.000 V 10.100 C 773.679 10.045 773.634 10.000 773.579 10.000 H 770.579 C 770.524 10.000 770.479 10.045 770.479 10.100 V 16.100 V 304.100 V 310.100 C 770.479 310.155 770.524 310.200 770.579 310.200" stroke="rgb(0,0,0)" stroke-width="0.20" />
  <path d="M 782.479 292.100 V 298.000 C 782.479 298.100 782.579 298.000 782.479 298.000 H 776.679 C 776.579 298.000 776.679 298.100 776.679 298.000 V 286.200 C 776.679 286.100 776.579 286.200 776.679 286.200 H 782.479 C 782.579 286.200 782.479 286.100 782.479 286.200 V 292.100 Z" stroke="rgb(0,0,255)" stroke-width="0.20" />
  <path d="M 782.479 268.100 V 274.000 C 782.479 274.100 782.579 274.000 782.479 274.000 H 776.679 C 776.579 274.000 776.679 274.100 776.679 274.000 V 262.200 C 776.679 262.100 776.579 262.200 776.679 262.200 H 782.479 C 782.579 262.200 782.479 262.100 782.479 262.200 V 268.100 Z" stroke="rgb(0,0,255)" stroke-width="0.20" />
  <path d="M 782.479 244.100 V 250.000 C 782.479 250.100 782.579 250.000 782.479 250.000 H 776.679 C 776.579 250.000 776.679 250.100 776.679 250.000 V 238.200 C 776.679 238.100 776.579 238.200 776.679 238.200 H 782.479 C 782.579 238.200 782.479 238.100 782.479 238.200 V 244.100 Z" stroke="rgb(0,0,255)" stroke-width="0.20" />
  <path d="M 782.479 220.100 V 226.000 C 782.479 226.100 782.579 226.000 782.479 226.000 H 776.679 C 776.579 226.000 776.679 226.100 776.679 226.000 V 214.200 C 776.679 214.100 776.579 214.200 776.679 214.200 H 782.479 C 782.579 214.200 782.479 214.100 782.479 214.200 V 220.100 Z" stroke="rgb(0,0,255)" stroke-width="0.20" />
  <path d="M 782.479 196.100 V 202.000 C 782.479 202.100 782.579 202.000 782.479 202.000 H 776.679 C 776.579 202.000 776.679 202.100 776.679 202.000 V 190.200 C 776.679 190.100 776.579 190.200 776.679 190.200 H 782.479 C 782.579 190.200 782.479 190.100 782.479 190.200 V 196.100 Z" stroke="rgb(0,0,255)" stroke-width="0.20" />
  <path d="M 782.479 172.100 V 178.000 C 782.479 178.100 782.579 178.000 782.479 178.000 H 776.679 C 776.579 178.000 776.679 178.100 776.679 178.000 V 166.200 C 776.679 166.100 776.579 166.200 776.679 166.200 H 782.479 C 782.579 166.200 782.479 166.100 782.479 166.200 V 172.100 Z" stroke="rgb(0,0,255)" stroke-width="0.20" />
  <path d="M 782.479 148.100 V 154.000 C 782.479 154.100 782.579 154.000 782.479 154.000 H 776.679 C 776.579 154.000 776.679 154.100 776.679 154.000 V 142.200 C 776.679 142.100 776.579 142.200 776.679 142.200 H 782.479 C 782.579 142.200 782.479 142.100 782.479 142.200 V 148.100 Z" stroke="rgb(0,0,255)" stroke-width="0.20" />
  <path d="M 782.479 124.100 V 130.000 C 782.479 130.100 782.579 130.000 782.479 130.000 H 776.679 C 776.579 130.000 776.679 130.100 776.679 130.000 V 118.200 C 776.679 118.100 776.579 118.200 776.679 118.200 H 782.479 C 782.579 118.200 782.479 118.100 782.479 118.200 V 124.100 Z" stroke="rgb(0,0,255)" stroke-width="0.20" />
  <path d="M 782.479 100.100 V 106.000 C 782.479 106.100 782.579 106.000 782.479 106.000 H 776.679 C 776.579 106.000 776.679 106.100 776.679 106.000 V 94.200 C 776.679 94.100 776.579 94.200 776.679 94.200 H 782.479 C 782.579 94.200 782.479 94.100 782.479 94.200 V 100.100 Z" stroke="rgb(0,0,255)" stroke-width="0.20" />
  <path d="M 782.479 76.100 V 82.000 C 782.479 82.100 782.579 82.000 782.479 82.000 H 776.679 C 776.579 82.000 776.679 82.100 776.679 82.000 V 70.200 C 776.679 70.100 776.579 70.200 776.679 70.200 H 782.479 C 782.579 70.200 782.479 70.100 782.479 70.200 V 76.100 Z" stroke="rgb(0,0,255)" stroke-width="0.20" />
  <path d="M 782.479 52.100 V 58.000 C 782.479 58.100 782.579 58.000 782.479 58.000 H 776.679 C 776.579 58.000 776.679 58.100 776.679 58.000 V 46.200 C 776.679 46.100 776.579 46.200 776.679 46.200 H 782.479 C 782.579 46.200 782.479 46.100 782.479 46.200 V 52.100 Z" stroke="rgb(0,0,255)" stroke-width="0.20" />
  <path d="M 782.479 28.100 V 34.000 C 782.479 34.100 782.579 34.000 782.479 34.000 H 776.679 C 776.579 34.000 776.679 34.100 776.679 34.000 V 22.200 C 776.679 22.100 776.579 22.200 776.679 22.200 H 782.479 C 782.579 22.200 782.479 22.100 782.479 22.200 V 28.100 Z" stroke="rgb(0,0,255)" stroke-width="0.20" />
</g>
<g id="p-10" style="fill:none;stroke-linecap:round;stroke-linejoin:round;">
  <path d="M 791.779 303.000 H 797.679 C 797.779 303.000 797.679 302.900 797.679 303.000 V 304.100 C 797.679 304.155 797.724 304.200 797.779 304.200 H 809.679 C 809.779 304.200 809.679 304.100 809.679 304.200 V 310.100 C 809.679 310.155 809.724 310.200 809.779 310.200 H 815.779 C 815.834 310.200 815.879 310.155 815.879 310.100 V 304.200 C 815.879 304.100 815.779 304.200 815.879 304.200 H 833.779 C 833.834 304.200 833.879 304.155 833.879 304.100 V 298.200 C 833.879 298.100 833.779 298.200 833.879 298.200 H 839.779 C 839.834 298.200 839.879 298.155 839.879 298.100 V 292.100 C 839.879 292.045 839.834 292.000 839.779 292.000 H 827.779 C 827.724 292.000 827.679 292.045 827.679 292.100 V 294.993 C 827.679 295.100 827.786 295.000 827.679 294.993 L 798.457 292.949 C 798.400 292.945 798.350 292.991 798.350 293.049 V 296.049 C 798.350 296.102 798.391 296.145 798.443 296.149 L 827.772 298.200 C 827.751 298.198 827.732 298.191 827.716 298.177 C 827.700 298.164 827.688 298.147 827.682 298.127 C 827.677 298.107 827.678 298.086 827.685 298.066 C 827.691 298.047 827.704 298.030 827.721 298.018 C 827.738 298.006 827.758 298.000 827.779 298.000 H 797.879 C 797.779 298.000 797.879 298.100 797.879 298.000 V 292.100 C 797.879 292.045 797.834 292.000 797.779 292.000 H 791.779 C 791.724 292.000 791.679 292.045 791.679 292.100 V 302.900 C 791.679 302.955 791.724 303.000 791.779 303.000 Z" stroke="rgb(0,0,0)" stroke-width="0.20" />
</g>
<g id="p-11" style="fill:none;stroke-linecap:round;stroke-linejoin:round;">
  <path d="M 791.779 281.800 H 797.679 C 797.779 281.800 797.679 281.700 797.679 281.800 V 282.900 C 797.679 282.955 797.724 283.000 797.779 283.000 H 809.679 C 809.779 283.000 809.679 282.900 809.679 283.000 V 288.900 C 809.679 288.955 809.724 289.000 809.779 289.000 H 815.779 C 815.834 289.000 815.879 288.955 815.879 288.900 V 283.000 C 815.879 282.900 815.779 283.000 815.879 283.000 H 833.779 C 833.834 283.000 833.879 282.955 833.879 282.900 V 277.000 C 833.879 276.900 833.779 277.000 833.879 277.000 H 839.779 C 839.834 277.000 839.879 276.955 839.879 276.900 V 270.900 C 839.879 270.845 839.834 270.800 839.779 270.800 H 827.779 C 827.724 270.800 827.679 270.845 827.679 270.900 V 273.793 C 827.679 273.900 827.786 273.800 827.679 273.793 L 798.457 271.749 C 798.400 271.745 798.350 271.791 798.350 271.849 V 274.849 C 798.350 274.902 798.391 274.945 798.443 274.949 L 827.772 277.000 C 827.751 276.998 827.732 276.991 827.716 276.977 C 827.700 276.964 827.688 276.947 827.682 276.927 C 827.677 276.907 827.678 276.886 827.685 276.866 C 827.691 276.847 827.704 276.830 827.721 276.818 C 827.738 276.806 827.758 276.800 827.779 276.800 H 797.879 C 797.779 276.800 797.879 276.900 797.879 276.800 V 270.900 C 797.879 270.845 797.834 270.800 797.779 270.800 H 791.779 C 791.724 270.800 791.679 270.845 791.679 270.900 V 281.700 C 791.679 281.755 791.724 281.800 791.779 281.800 Z" stroke="rgb(0,0,0)" stroke-width="0.20" />
</g>
<g id="p-12" style="fill:none;stroke-linecap:round;stroke-linejoin:round;">
  <path d="M 794.779 267.800 H 800.479 C 800.534 267.800 800.579 267.755 800.579 267.700 V 252.500 C 800.579 252.400 800.479 252.500 800.579 252.500 H 806.979 C 807.079 252.500 806.979 252.400 806.979 252.500 V 267.700 C 806.979 267.755 807.024 267.800 807.079 267.800 H 812.779 C 812.834 267.800 812.879 267.755 812.879 267.700 V 261.800 C 812.879 261.700 812.779 261.800 812.879 261.800 H 815.779 C 815.834 261.800 815.879 261.755 815.879 261.700 V 249.700 C 815.879 249.673 815.868 249.648 815.849 249.629 L 809.849 243.629 C 809.831 243.611 809.805 243.600 809.779 243.600 H 797.779 C 797.752 243.600 797.727 243.611 797.708 243.629 L 791.708 249.629 C 791.689 249.648 791.679 249.673 791.679 249.700 V 261.700 C 791.679 261.755 791.724 261.800 791.779 261.800 H 794.679 C 794.779 261.800 794.679 261.700 794.679 261.800 V 267.700 C 794.679 267.755 794.724 267.800 794.779 267.800 Z" stroke="rgb(0,0,0)" stroke-width="0.20" />
</g>
<g id="p-13" style="fill:none;stroke-linecap:round;stroke-linejoin:round;">
  <path d="M 821.979 267.800 H 827.679 C 827.734 267.800 827.779 267.755 827.779 267.700 V 252.500 C 827.779 252.400 827.679 252.500 827.779 252.500 H 834.179 C 834.279 252.500 834.179 252.400 834.179 252.500 V 267.700 C 834.179 267.755 834.224 267.800 834.279 267.800 H 839.979 C 840.034 267.800 840.079 267.755 840.079 267.700 V 261.800 C 840.079 261.700 839.979 261.800 840.079 261.800 H 842.979 C 843.034 261.800 843.079 261.755 843.079 261.700 V 249.700 C 843.079 249.673 843.068 249.648 843.049 249.629 L 837.049 243.629 C 837.031 243.611 837.005 243.600 836.979 243.600 H 824.979 C 824.952 243.600 824.927 243.611 824.908 243.629 L 818.908 249.629 C 818.889 249.648 818.879 249.673 818.879 249.700 V 261.700 C 818.879 261.755 818.924 261.800 818.979 261.800 H 821.879 C 821.979 261.800 821.879 261.700 821.879 261.800 V 267.700 C 821.879 267.755 821.924 267.800 821.979 267.800 Z" stroke="rgb(0,0,0)" stroke-width="0.20" />
</g>
<g id="p-14" style="fill:none;stroke-linecap:round;stroke-linejoin:round;">
  <path d="M 794.779 240.600 H 800.479 C 800.534 240.600 800.579 240.555 800.579 240.500 V 225.300 C 800.579 225.200 800.479 225.300 800.579 225.300 H 806.979 C 807.079 225.300 806.979 225.200 806.979 225.300 V 240.500 C 806.979 240.555 807.024 240.600 807.079 240.600 H 812.779 C 812.834 240.600 812.879 240.555 812.879 240.500 V 234.600 C 812.879 234.500 812.779 234.600 812.879 234.600 H 815.779 C 815.834 234.600 815.879 234.555 815.879 234.500 V 222.500 C 815.879 222.473 815.868 222.448 815.849 222.429 L 809.849 216.429 C 809.831 216.411 809.805 216.400 809.779 216.400 H 797.779 C 797.752 216.400 797.727 216.411 797.708 216.429 L 791.708 222.429 C 791.689 222.448 791.679 222.473 791.679 222.500 V 234.500 C 791.679 234.555 791.724 234.600 791.779 234.600 H 794.679 C 794.779 234.600 794.679 234.500 794.679 234.600 V 240.500 C 794.679 240.555 794.724 240.600 794.779 240.600 Z" stroke="rgb(0,0,0)" stroke-width="0.20" />
</g>
<g id="p-15" style="fill:none;stroke-linecap:round;stroke-linejoin:round;">
  <path d="M 821.979 240.600 H 827.679 C 827.734 240.600 827.779 240.555 827.779 240.500 V 225.300 C 827.779 225.200 827.679 225.300 827.779 225.300 H 834.179 C 834.279 225.300 834.179 225.200 834.179 225.300 V 240.500 C 834.179 240.555 834.224 240.600 834.279 240.600 H 839.979 C 840.034 240.600 840.079 240.555 840.079 240.500 V 234.600 C 840.079 234.500 839.979 234.600 840.079 234.600 H 842.979 C 843.034 234.600 843.079 234.555 843.079 234.500 V 222.500 C 843.079 222.473 843.068 222.448 843.049 222.429 L 837.049 216.429 C 837.031 216.411 837.005 216.400 836.979 216.400 H 824.979 C 824.952 216.400 824.927 216.411 824.908 216.429 L 818.908 222.429 C 818.889 222.448 818.879 222.473 818.879 222.500 V 234.500 C 818.879 234.555 818.924 234.600 818.979 234.600 H 821.879 C 821.979 234.600 821.879 234.500 821.879 234.600 V 240.500 C 821.879 240.555 821.924 240.600 821.979 240.600 Z" stroke="rgb(0,0,0)" stroke-width="0.20" />
</g>
</svg>