<?xml version="1.0" encoding="UTF-8" standalone="no"?>
<!-- Created with Inkscape (http://www.inkscape.org/) -->

<svg
   width="605mm"
   height="305mm"
   viewBox="0 0 605 305"
   version="1.1"
   id="svg1"
   xml:space="preserve"
   inkscape:version="1.4.2 (f4327f4, 2025-05-13)"
   sodipodi:docname="Console2_reworked.svg"
   xmlns:inkscape="http://www.inkscape.org/namespaces/inkscape"
   xmlns:sodipodi="http://sodipodi.sourceforge.net/DTD/sodipodi-0.dtd"
   xmlns="http://www.w3.org/2000/svg"
   xmlns:svg="http://www.w3.org/2000/svg"><sodipodi:namedview
     id="namedview1"
     pagecolor="#ffffff"
     bordercolor="#000000"
     borderopacity="0.25"
     inkscape:showpageshadow="2"
     inkscape:pageopacity="0.0"
     inkscape:pagecheckerboard="0"
     inkscape:deskcolor="#d1d1d1"
     inkscape:document-units="mm"
     inkscape:zoom="2"
     inkscape:cx="654.5"
     inkscape:cy="521.75"
     inkscape:window-width="1920"
     inkscape:window-height="1009"
     inkscape:window-x="1912"
     inkscape:window-y="-8"
     inkscape:window-maximized="1"
     inkscape:current-layer="p-4" /><defs
     id="defs1" /><g
     id="g2"
     transform="translate(-901.73117,-371.75208)"><g
       id="p-1"
       style="fill:none;stroke-linecap:round;stroke-linejoin:round;stroke:#ff0000;stroke-width:0.1"
       transform="rotate(180,748.3859,431.07659)"><path
         d="m 25.1,304 h -5.9 c -0.1,0 0,0.1 0,0 v -5.8 c 0,-0.1 -0.1,0 0,0 H 31 c 0.1,0 0,-0.1 0,0 v 5.8 c 0,0.1 0.1,0 0,0 z"
         stroke="#0000ff"
         stroke-width="0.2"
         id="path2"
         style="stroke:#ff0000;stroke-width:0.1" /><path
         d="m 49.1,304 h -5.9 c -0.1,0 0,0.1 0,0 v -5.8 c 0,-0.1 -0.1,0 0,0 H 55 c 0.1,0 0,-0.1 0,0 v 5.8 c 0,0.1 0.1,0 0,0 z"
         stroke="#0000ff"
         stroke-width="0.2"
         id="path3"
         style="stroke:#ff0000;stroke-width:0.1" /><path
         d="m 73.1,304 h -5.9 c -0.1,0 0,0.1 0,0 v -5.8 c 0,-0.1 -0.1,0 0,0 H 79 c 0.1,0 0,-0.1 0,0 v 5.8 c 0,0.1 0.1,0 0,0 z"
         stroke="#0000ff"
         stroke-width="0.2"
         id="path4"
         style="stroke:#ff0000;stroke-width:0.1" /><path
         d="m 97.1,304 h -5.9 c -0.1,0 0,0.1 0,0 v -5.8 c 0,-0.1 -0.1,0 0,0 H 103 c 0.1,0 0,-0.1 0,0 v 5.8 c 0,0.1 0.1,0 0,0 z"
         stroke="#0000ff"
         stroke-width="0.2"
         id="path5"
         style="stroke:#ff0000;stroke-width:0.1" /><path
         d="m 121.1,304 h -5.9 c -0.1,0 0,0.1 0,0 v -5.8 c 0,-0.1 -0.1,0 0,0 H 127 c 0.1,0 0,-0.1 0,0 v 5.8 c 0,0.1 0.1,0 0,0 z"
         stroke="#0000ff"
         stroke-width="0.2"
         id="path6"
         style="stroke:#ff0000;stroke-width:0.1" /><path
         d="m 145.1,304 h -5.9 c -0.1,0 0,0.1 0,0 v -5.8 c 0,-0.1 -0.1,0 0,0 H 151 c 0.1,0 0,-0.1 0,0 v 5.8 c 0,0.1 0.1,0 0,0 z"
         stroke="#0000ff"
         stroke-width="0.2"
         id="path7"
         style="stroke:#ff0000;stroke-width:0.1" /><text
         dominant-baseline="hanging"
         font-size="4px"
         style="font-style:normal;font-weight:normal;font-family:sans-serif;fill:#00ff00;stroke:#00ff00;stroke-width:0.1"
         text-anchor="middle"
         transform="translate(85.1,262.025)"
         id="text7">Left Side</text><path
         d="m 16.1,310.2 h 138 c 0.055,0 0.1,-0.045 0.1,-0.1 v -4.041 c 0,-0.1 -0.1,0 0,0 h 5.9 c 0.055,0 0.1,-0.044 0.1,-0.1 v -8.281 c 0,-0.055 -0.045,-0.1 -0.1,-0.1 h -5.9 c -0.1,0 0,0.1 0,0 v -4.04 -5.438 c 0,-0.039 -0.023,-0.074 -0.058,-0.091 l -9.093,-4.24 c -0.09,-0.042 -0.042,0.091 0,0 l 2.494,-5.347 c 0.023,-0.05 0.001,-0.11 -0.049,-0.133 l -10.875,-5.071 c -0.05,-0.024 -0.11,-0.002 -0.133,0.048 l -2.494,5.347 c -0.042,0.091 0.091,0.043 0,0 l -10.694,-4.987 c -0.091,-0.042 -0.042,0.091 0,0 l 2.493,-5.347 c 0.024,-0.05 0.002,-0.109 -0.048,-0.133 l -10.876,-5.071 c -0.05,-0.023 -0.109,-0.002 -0.133,0.048 l -2.493,5.347 c -0.042,0.091 0.09,0.043 0,0 l -10.695,-4.986 c -0.09,-0.043 -0.042,0.09 0,0 l 2.494,-5.348 c 0.023,-0.05 0.002,-0.109 -0.048,-0.133 l -10.876,-5.071 c -0.05,-0.023 -0.11,-0.002 -0.133,0.048 l -2.494,5.348 c -0.042,0.09 0.091,0.042 0,0 l -10.694,-4.987 c -0.091,-0.043 -0.042,0.09 0,0 l 2.493,-5.348 c 0.024,-0.05 0.002,-0.109 -0.048,-0.132 l -10.876,-5.072 c -0.05,-0.023 -0.109,-0.002 -0.132,0.049 l -2.494,5.347 c -0.042,0.09 0.091,0.042 0,0 l -10.694,-4.987 c -0.091,-0.042 -0.043,0.09 0,0 l 2.493,-5.347 c 0.023,-0.05 0.002,-0.11 -0.048,-0.133 l -10.876,-5.072 c -0.05,-0.023 -0.11,-10e-4 -0.133,0.049 l -2.493,5.347 c -0.043,0.091 0.09,0.042 0,0 l -10.695,-4.987 c -0.09,-0.042 -0.042,0.091 0,0 l 2.494,-5.347 c 0.023,-0.05 10e-4,-0.11 -0.049,-0.133 l -10.875,-5.072 c -0.05,-0.023 -0.11,-10e-4 -0.133,0.049 l -2.494,5.347 c -0.042,0.091 0.091,0.042 0,0 l -9.093,-4.24 c -0.015,-0.007 -0.032,-0.01 -0.049,-0.009 -0.016,0.001 -0.033,0.006 -0.047,0.015 -0.014,0.009 -0.026,0.022 -0.034,0.036 C 16.004,223.716 16,223.733 16,223.75 v 68.35 2.9 c 0,0.1 0.1,0 0,0 h -5.9 c -0.055,0 -0.1,0.045 -0.1,0.1 v 12 c 0,0.055 0.045,0.1 0.1,0.1 H 16 c 0.1,0 0,-0.1 0,0 v 2.9 c 0,0.055 0.045,0.1 0.1,0.1"
         stroke="#000000"
         stroke-width="0.2"
         id="path8"
         style="stroke:#ff0000;stroke-width:0.1" /><path
         d="m 22.1,259.75 v -3.2 c 0,-0.1 -0.1,0 0,0 h 6.4 c 0.1,0 0,-0.1 0,0 v 6.4 c 0,0.1 0.1,0 0,0 h -6.4 c -0.1,0 0,0.1 0,0 z"
         stroke="#0000ff"
         stroke-width="0.2"
         id="path9"
         style="stroke:#ff0000;stroke-width:0.1" /></g><g
       id="p-2"
       style="fill:none;stroke-linecap:round;stroke-linejoin:round;stroke:#ff0000;stroke-width:0.1"
       transform="translate(1172.087,364.33085)"><path
         d="m 178.3,304 h -5.9 c -0.1,0 0,0.1 0,0 v -5.8 c 0,-0.1 -0.1,0 0,0 h 11.8 c 0.1,0 0,-0.1 0,0 v 5.8 c 0,0.1 0.1,0 0,0 z"
         stroke="#0000ff"
         stroke-width="0.2"
         id="path10"
         style="stroke:#ff0000;stroke-width:0.1" /><path
         d="m 202.3,304 h -5.9 c -0.1,0 0,0.1 0,0 v -5.8 c 0,-0.1 -0.1,0 0,0 h 11.8 c 0.1,0 0,-0.1 0,0 v 5.8 c 0,0.1 0.1,0 0,0 z"
         stroke="#0000ff"
         stroke-width="0.2"
         id="path11"
         style="stroke:#ff0000;stroke-width:0.1" /><path
         d="m 226.3,304 h -5.9 c -0.1,0 0,0.1 0,0 v -5.8 c 0,-0.1 -0.1,0 0,0 h 11.8 c 0.1,0 0,-0.1 0,0 v 5.8 c 0,0.1 0.1,0 0,0 z"
         stroke="#0000ff"
         stroke-width="0.2"
         id="path12"
         style="stroke:#ff0000;stroke-width:0.1" /><path
         d="m 250.3,304 h -5.9 c -0.1,0 0,0.1 0,0 v -5.8 c 0,-0.1 -0.1,0 0,0 h 11.8 c 0.1,0 0,-0.1 0,0 v 5.8 c 0,0.1 0.1,0 0,0 z"
         stroke="#0000ff"
         stroke-width="0.2"
         id="path13"
         style="stroke:#ff0000;stroke-width:0.1" /><path
         d="m 274.3,304 h -5.9 c -0.1,0 0,0.1 0,0 v -5.8 c 0,-0.1 -0.1,0 0,0 h 11.8 c 0.1,0 0,-0.1 0,0 v 5.8 c 0,0.1 0.1,0 0,0 z"
         stroke="#0000ff"
         stroke-width="0.2"
         id="path14"
         style="stroke:#ff0000;stroke-width:0.1" /><path
         d="m 298.3,304 h -5.9 c -0.1,0 0,0.1 0,0 v -5.8 c 0,-0.1 -0.1,0 0,0 h 11.8 c 0.1,0 0,-0.1 0,0 v 5.8 c 0,0.1 0.1,0 0,0 z"
         stroke="#0000ff"
         stroke-width="0.2"
         id="path15"
         style="stroke:#ff0000;stroke-width:0.1" /><text
         dominant-baseline="hanging"
         font-size="4px"
         style="font-style:normal;font-weight:normal;font-family:sans-serif;fill:#00ff00;stroke:#00ff00;stroke-width:0.1"
         text-anchor="middle"
         transform="translate(238.3,262.025)"
         id="text15">Right Side</text><path
         d="m 169.3,310.2 h 138 c 0.055,0 0.1,-0.045 0.1,-0.1 v -4.041 c 0,-0.1 -0.1,0 0,0 h 5.9 c 0.055,0 0.1,-0.044 0.1,-0.1 v -8.281 c 0,-0.055 -0.045,-0.1 -0.1,-0.1 h -5.9 c -0.1,0 0,0.1 0,0 v -4.04 -5.438 c 0,-0.039 -0.023,-0.074 -0.058,-0.091 l -9.093,-4.24 c -0.09,-0.042 -0.042,0.091 0,0 l 2.494,-5.347 c 0.023,-0.05 0.001,-0.11 -0.049,-0.133 l -10.875,-5.071 c -0.05,-0.024 -0.11,-0.002 -0.133,0.048 l -2.494,5.347 c -0.042,0.091 0.091,0.043 0,0 l -10.694,-4.987 c -0.091,-0.042 -0.042,0.091 0,0 l 2.493,-5.347 c 0.024,-0.05 0.002,-0.109 -0.048,-0.133 l -10.876,-5.071 c -0.05,-0.023 -0.109,-0.002 -0.133,0.048 l -2.493,5.347 c -0.042,0.091 0.09,0.043 0,0 l -10.695,-4.986 c -0.09,-0.043 -0.042,0.09 0,0 l 2.494,-5.348 c 0.023,-0.05 0.002,-0.109 -0.048,-0.133 l -10.876,-5.071 c -0.05,-0.023 -0.11,-0.002 -0.133,0.048 l -2.494,5.348 c -0.042,0.09 0.091,0.042 0,0 l -10.694,-4.987 c -0.091,-0.043 -0.042,0.09 0,0 l 2.493,-5.348 c 0.024,-0.05 0.002,-0.109 -0.048,-0.132 l -10.876,-5.072 c -0.05,-0.023 -0.109,-0.002 -0.132,0.049 l -2.494,5.347 c -0.042,0.09 0.091,0.042 0,0 l -10.694,-4.987 c -0.091,-0.042 -0.043,0.09 0,0 l 2.493,-5.347 c 0.023,-0.05 0.002,-0.11 -0.048,-0.133 l -10.876,-5.072 c -0.05,-0.023 -0.11,-10e-4 -0.133,0.049 l -2.493,5.347 c -0.043,0.091 0.09,0.042 0,0 l -10.695,-4.987 c -0.09,-0.042 -0.042,0.091 0,0 l 2.494,-5.347 c 0.023,-0.05 0.001,-0.11 -0.049,-0.133 l -10.875,-5.072 c -0.05,-0.023 -0.11,-10e-4 -0.133,0.049 l -2.494,5.347 c -0.042,0.091 0.091,0.042 0,0 l -9.093,-4.24 c -0.015,-0.007 -0.032,-0.01 -0.049,-0.009 -0.016,0.001 -0.033,0.006 -0.047,0.015 -0.014,0.009 -0.026,0.022 -0.034,0.036 -0.008,0.015 -0.012,0.032 -0.012,0.049 v 68.35 2.9 c 0,0.1 0.1,0 0,0 h -5.9 c -0.055,0 -0.1,0.045 -0.1,0.1 v 12 c 0,0.055 0.045,0.1 0.1,0.1 h 5.9 c 0.1,0 0,-0.1 0,0 v 2.9 c 0,0.055 0.045,0.1 0.1,0.1"
         stroke="#000000"
         stroke-width="0.2"
         id="path16"
         style="stroke:#ff0000;stroke-width:0.1" /><path
         d="m 175.3,259.75 v -3.2 c 0,-0.1 -0.1,0 0,0 h 6.4 c 0.1,0 0,-0.1 0,0 v 6.4 c 0,0.1 0.1,0 0,0 h -6.4 c -0.1,0 0,0.1 0,0 z"
         stroke="#0000ff"
         stroke-width="0.2"
         id="path17"
         style="stroke:#ff0000;stroke-width:0.1" /></g><g
       id="p-3"
       style="fill:none;stroke-linecap:round;stroke-linejoin:round;stroke-width:0.1;stroke-dasharray:none;stroke:#ff0000"
       transform="translate(588.20302,364.44094)"><text
         dominant-baseline="hanging"
         font-size="4px"
         style="font-style:normal;font-weight:normal;font-family:sans-serif;fill:#00ff00;stroke-width:0.1;stroke-dasharray:none;stroke:#00ff00"
         text-anchor="middle"
         transform="translate(391.5,158.2)"
         id="text17">Floor</text><path
         d="m 322.5,304.2 h 2.9 c 0.1,0 0,-0.1 0,0 v 5.9 c 0,0.055 0.045,0.1 0.1,0.1 h 12 c 0.055,0 0.1,-0.045 0.1,-0.1 v -5.9 c 0,-0.1 -0.1,0 0,0 h 11.8 c 0.1,0 0,-0.1 0,0 v 5.9 c 0,0.055 0.045,0.1 0.1,0.1 h 12 c 0.055,0 0.1,-0.045 0.1,-0.1 v -5.9 c 0,-0.1 -0.1,0 0,0 h 11.8 c 0.1,0 0,-0.1 0,0 v 5.9 c 0,0.055 0.045,0.1 0.1,0.1 h 12 c 0.055,0 0.1,-0.045 0.1,-0.1 v -5.9 c 0,-0.1 -0.1,0 0,0 h 11.8 c 0.1,0 0,-0.1 0,0 v 5.9 c 0,0.055 0.045,0.1 0.1,0.1 h 12 c 0.055,0 0.1,-0.045 0.1,-0.1 v -5.9 c 0,-0.1 -0.1,0 0,0 h 11.8 c 0.1,0 0,-0.1 0,0 v 5.9 c 0,0.055 0.045,0.1 0.1,0.1 h 12 c 0.055,0 0.1,-0.045 0.1,-0.1 v -5.9 c 0,-0.1 -0.1,0 0,0 h 11.8 c 0.1,0 0,-0.1 0,0 v 5.9 c 0,0.055 0.045,0.1 0.1,0.1 h 12 c 0.055,0 0.1,-0.045 0.1,-0.1 v -5.9 c 0,-0.1 -0.1,0 0,0 h 2.9 c 0.055,0 0.1,-0.045 0.1,-0.1 v -5.9 c 0,-0.1 -0.1,0 0,0 h 5.9 c 0.055,0 0.1,-0.045 0.1,-0.1 v -12 c 0,-0.055 -0.045,-0.1 -0.1,-0.1 h -5.9 c -0.1,0 0,0.1 0,0 v -11.8 c 0,-0.1 -0.1,0 0,0 h 5.9 c 0.055,0 0.1,-0.045 0.1,-0.1 v -12 c 0,-0.055 -0.045,-0.1 -0.1,-0.1 h -5.9 c -0.1,0 0,0.1 0,0 v -11.8 c 0,-0.1 -0.1,0 0,0 h 5.9 c 0.055,0 0.1,-0.045 0.1,-0.1 v -12 c 0,-0.055 -0.045,-0.1 -0.1,-0.1 h -5.9 c -0.1,0 0,0.1 0,0 v -11.8 c 0,-0.1 -0.1,0 0,0 h 5.9 c 0.055,0 0.1,-0.045 0.1,-0.1 v -12 c 0,-0.055 -0.045,-0.1 -0.1,-0.1 h -5.9 c -0.1,0 0,0.1 0,0 v -11.8 c 0,-0.1 -0.1,0 0,0 h 5.9 c 0.055,0 0.1,-0.045 0.1,-0.1 v -12 c 0,-0.055 -0.045,-0.1 -0.1,-0.1 h -5.9 c -0.1,0 0,0.1 0,0 v -11.8 c 0,-0.1 -0.1,0 0,0 h 5.9 c 0.055,0 0.1,-0.045 0.1,-0.1 v -12 c 0,-0.055 -0.045,-0.1 -0.1,-0.1 h -5.9 c -0.1,0 0,0.1 0,0 v -11.8 c 0,-0.1 -0.1,0 0,0 h 5.9 c 0.055,0 0.1,-0.045 0.1,-0.1 v -12 c 0,-0.055 -0.045,-0.1 -0.1,-0.1 h -5.9 c -0.1,0 0,0.1 0,0 v -11.8 c 0,-0.1 -0.1,0 0,0 h 5.9 c 0.055,0 0.1,-0.045 0.1,-0.1 v -12 c 0,-0.055 -0.045,-0.1 -0.1,-0.1 h -5.9 c -0.1,0 0,0.1 0,0 v -11.8 c 0,-0.1 -0.1,0 0,0 h 5.9 c 0.055,0 0.1,-0.045 0.1,-0.1 v -12 c 0,-0.055 -0.045,-0.1 -0.1,-0.1 h -5.9 c -0.1,0 0,0.1 0,0 V 82.2 c 0,-0.1 -0.1,0 0,0 h 5.9 c 0.055,0 0.1,-0.045 0.1,-0.1 v -12 c 0,-0.055 -0.045,-0.1 -0.1,-0.1 h -5.9 c -0.1,0 0,0.1 0,0 V 58.2 c 0,-0.1 -0.1,0 0,0 h 5.9 c 0.055,0 0.1,-0.045 0.1,-0.1 v -12 c 0,-0.055 -0.045,-0.1 -0.1,-0.1 h -5.9 c -0.1,0 0,0.1 0,0 V 34.2 c 0,-0.1 -0.1,0 0,0 h 5.9 c 0.055,0 0.1,-0.045 0.1,-0.1 v -12 c 0,-0.055 -0.045,-0.1 -0.1,-0.1 h -5.9 c -0.1,0 0,0.1 0,0 v -5.9 c 0,-0.055 -0.045,-0.1 -0.1,-0.1 h -2.9 c -0.1,0 0,0.1 0,0 v -5.9 c 0,-0.055 -0.045,-0.1 -0.1,-0.1 h -12 c -0.055,0 -0.1,0.045 -0.1,0.1 V 16 c 0,0.1 0.1,0 0,0 h -11.8 c -0.1,0 0,0.1 0,0 v -5.9 c 0,-0.055 -0.045,-0.1 -0.1,-0.1 h -12 c -0.055,0 -0.1,0.045 -0.1,0.1 V 16 c 0,0.1 0.1,0 0,0 h -11.8 c -0.1,0 0,0.1 0,0 v -5.9 c 0,-0.055 -0.045,-0.1 -0.1,-0.1 h -12 c -0.055,0 -0.1,0.045 -0.1,0.1 V 16 c 0,0.1 0.1,0 0,0 h -11.8 c -0.1,0 0,0.1 0,0 v -5.9 c 0,-0.055 -0.045,-0.1 -0.1,-0.1 h -12 c -0.055,0 -0.1,0.045 -0.1,0.1 V 16 c 0,0.1 0.1,0 0,0 h -11.8 c -0.1,0 0,0.1 0,0 v -5.9 c 0,-0.055 -0.045,-0.1 -0.1,-0.1 h -12 c -0.055,0 -0.1,0.045 -0.1,0.1 V 16 c 0,0.1 0.1,0 0,0 h -11.8 c -0.1,0 0,0.1 0,0 v -5.9 c 0,-0.055 -0.045,-0.1 -0.1,-0.1 h -12 c -0.055,0 -0.1,0.045 -0.1,0.1 V 16 c 0,0.1 0.1,0 0,0 h -2.9 c -0.055,0 -0.1,0.045 -0.1,0.1 V 22 c 0,0.1 0.1,0 0,0 h -5.9 c -0.055,0 -0.1,0.045 -0.1,0.1 v 12 c 0,0.055 0.045,0.1 0.1,0.1 h 5.9 c 0.1,0 0,-0.1 0,0 V 46 c 0,0.1 0.1,0 0,0 h -5.9 c -0.055,0 -0.1,0.045 -0.1,0.1 v 12 c 0,0.055 0.045,0.1 0.1,0.1 h 5.9 c 0.1,0 0,-0.1 0,0 V 70 c 0,0.1 0.1,0 0,0 h -5.9 c -0.055,0 -0.1,0.045 -0.1,0.1 v 12 c 0,0.055 0.045,0.1 0.1,0.1 h 5.9 c 0.1,0 0,-0.1 0,0 V 94 c 0,0.1 0.1,0 0,0 h -5.9 c -0.055,0 -0.1,0.045 -0.1,0.1 v 12 c 0,0.055 0.045,0.1 0.1,0.1 h 5.9 c 0.1,0 0,-0.1 0,0 V 118 c 0,0.1 0.1,0 0,0 h -5.9 c -0.055,0 -0.1,0.045 -0.1,0.1 v 12 c 0,0.055 0.045,0.1 0.1,0.1 h 5.9 c 0.1,0 0,-0.1 0,0 V 142 c 0,0.1 0.1,0 0,0 h -5.9 c -0.055,0 -0.1,0.045 -0.1,0.1 v 12 c 0,0.055 0.045,0.1 0.1,0.1 h 5.9 c 0.1,0 0,-0.1 0,0 V 166 c 0,0.1 0.1,0 0,0 h -5.9 c -0.055,0 -0.1,0.045 -0.1,0.1 v 12 c 0,0.055 0.045,0.1 0.1,0.1 h 5.9 c 0.1,0 0,-0.1 0,0 V 190 c 0,0.1 0.1,0 0,0 h -5.9 c -0.055,0 -0.1,0.045 -0.1,0.1 v 12 c 0,0.055 0.045,0.1 0.1,0.1 h 5.9 c 0.1,0 0,-0.1 0,0 V 214 c 0,0.1 0.1,0 0,0 h -5.9 c -0.055,0 -0.1,0.045 -0.1,0.1 v 12 c 0,0.055 0.045,0.1 0.1,0.1 h 5.9 c 0.1,0 0,-0.1 0,0 V 238 c 0,0.1 0.1,0 0,0 h -5.9 c -0.055,0 -0.1,0.045 -0.1,0.1 v 12 c 0,0.055 0.045,0.1 0.1,0.1 h 5.9 c 0.1,0 0,-0.1 0,0 V 262 c 0,0.1 0.1,0 0,0 h -5.9 c -0.055,0 -0.1,0.045 -0.1,0.1 v 12 c 0,0.055 0.045,0.1 0.1,0.1 h 5.9 c 0.1,0 0,-0.1 0,0 V 286 c 0,0.1 0.1,0 0,0 h -5.9 c -0.055,0 -0.1,0.045 -0.1,0.1 v 12 c 0,0.055 0.045,0.1 0.1,0.1 h 5.9 c 0.1,0 0,-0.1 0,0 v 5.9 c 0,0.055 0.045,0.1 0.1,0.1"
         stroke="#000000"
         stroke-width="0.2"
         id="path18"
         style="stroke-width:0.1;stroke-dasharray:none;stroke:#ff0000" /></g><g
       id="p-4"
       style="fill:none;stroke-linecap:round;stroke-linejoin:round;stroke:#ff0000;stroke-width:0.1"
       transform="translate(588.20302,364.44094)"><text
         dominant-baseline="hanging"
         font-size="4px"
         style="font-style:normal;font-weight:normal;font-family:sans-serif;fill:#00ff00;stroke-width:0.1;stroke-dasharray:none;stroke:#00ff00"
         text-anchor="middle"
         transform="translate(477.981,158.2)"
         id="text18">Front</text><path
         d="m 469.7,310.2 h 4.141 c 0.055,0 0.1,-0.045 0.1,-0.1 v -5.9 c 0,-0.1 -0.1,0 0,0 h 8.081 c 0.1,0 0,-0.1 0,0 v 5.9 c 0,0.055 0.044,0.1 0.1,0.1 h 4.14 c 0.055,0 0.1,-0.045 0.1,-0.1 v -6 -288 -6 c 0,-0.055 -0.045,-0.1 -0.1,-0.1 h -4.14 c -0.056,0 -0.1,0.045 -0.1,0.1 V 16 c 0,0.1 0.1,0 0,0 h -8.081 c -0.1,0 0,0.1 0,0 v -5.9 c 0,-0.055 -0.045,-0.1 -0.1,-0.1 H 469.7 c -0.055,0 -0.1,0.045 -0.1,0.1 v 6 288 6 c 0,0.055 0.045,0.1 0.1,0.1"
         stroke="#000000"
         stroke-width="0.2"
         id="path19"
         style="stroke:#ff0000;stroke-width:0.1;stroke-dasharray:none" /><path
         d="m 475.8,28.1 v -5.9 c 0,-0.1 -0.1,0 0,0 h 5.8 c 0.1,0 0,-0.1 0,0 V 34 c 0,0.1 0.1,0 0,0 h -5.8 c -0.1,0 0,0.1 0,0 z"
         stroke="#0000ff"
         stroke-width="0.2"
         id="path20"
         style="stroke:#ff0000;stroke-width:0.1;stroke-dasharray:none" /><path
         d="m 475.8,52.1 v -5.9 c 0,-0.1 -0.1,0 0,0 h 5.8 c 0.1,0 0,-0.1 0,0 V 58 c 0,0.1 0.1,0 0,0 h -5.8 c -0.1,0 0,0.1 0,0 z"
         stroke="#0000ff"
         stroke-width="0.2"
         id="path21"
         style="stroke:#ff0000;stroke-width:0.1;stroke-dasharray:none" /><path
         d="m 475.8,76.1 v -5.9 c 0,-0.1 -0.1,0 0,0 h 5.8 c 0.1,0 0,-0.1 0,0 V 82 c 0,0.1 0.1,0 0,0 h -5.8 c -0.1,0 0,0.1 0,0 z"
         stroke="#0000ff"
         stroke-width="0.2"
         id="path22"
         style="stroke:#ff0000;stroke-width:0.1;stroke-dasharray:none" /><path
         d="m 475.8,100.1 v -5.9 c 0,-0.1 -0.1,0 0,0 h 5.8 c 0.1,0 0,-0.1 0,0 V 106 c 0,0.1 0.1,0 0,0 h -5.8 c -0.1,0 0,0.1 0,0 z"
         stroke="#0000ff"
         stroke-width="0.2"
         id="path23"
         style="stroke:#ff0000;stroke-width:0.1;stroke-dasharray:none" /><path
         d="m 475.8,124.1 v -5.9 c 0,-0.1 -0.1,0 0,0 h 5.8 c 0.1,0 0,-0.1 0,0 V 130 c 0,0.1 0.1,0 0,0 h -5.8 c -0.1,0 0,0.1 0,0 z"
         stroke="#0000ff"
         stroke-width="0.2"
         id="path24"
         style="stroke:#ff0000;stroke-width:0.1;stroke-dasharray:none" /><path
         d="m 475.8,148.1 v -5.9 c 0,-0.1 -0.1,0 0,0 h 5.8 c 0.1,0 0,-0.1 0,0 V 154 c 0,0.1 0.1,0 0,0 h -5.8 c -0.1,0 0,0.1 0,0 z"
         stroke="#0000ff"
         stroke-width="0.2"
         id="path25"
         style="stroke:#ff0000;stroke-width:0.1;stroke-dasharray:none" /><path
         d="m 475.8,172.1 v -5.9 c 0,-0.1 -0.1,0 0,0 h 5.8 c 0.1,0 0,-0.1 0,0 V 178 c 0,0.1 0.1,0 0,0 h -5.8 c -0.1,0 0,0.1 0,0 z"
         stroke="#0000ff"
         stroke-width="0.2"
         id="path26"
         style="stroke:#ff0000;stroke-width:0.1;stroke-dasharray:none" /><path
         d="m 475.8,196.1 v -5.9 c 0,-0.1 -0.1,0 0,0 h 5.8 c 0.1,0 0,-0.1 0,0 V 202 c 0,0.1 0.1,0 0,0 h -5.8 c -0.1,0 0,0.1 0,0 z"
         stroke="#0000ff"
         stroke-width="0.2"
         id="path27"
         style="stroke:#ff0000;stroke-width:0.1;stroke-dasharray:none" /><path
         d="m 475.8,220.1 v -5.9 c 0,-0.1 -0.1,0 0,0 h 5.8 c 0.1,0 0,-0.1 0,0 V 226 c 0,0.1 0.1,0 0,0 h -5.8 c -0.1,0 0,0.1 0,0 z"
         stroke="#0000ff"
         stroke-width="0.2"
         id="path28"
         style="stroke:#ff0000;stroke-width:0.1;stroke-dasharray:none" /><path
         d="m 475.8,244.1 v -5.9 c 0,-0.1 -0.1,0 0,0 h 5.8 c 0.1,0 0,-0.1 0,0 V 250 c 0,0.1 0.1,0 0,0 h -5.8 c -0.1,0 0,0.1 0,0 z"
         stroke="#0000ff"
         stroke-width="0.2"
         id="path29"
         style="stroke:#ff0000;stroke-width:0.1;stroke-dasharray:none" /><path
         d="m 475.8,268.1 v -5.9 c 0,-0.1 -0.1,0 0,0 h 5.8 c 0.1,0 0,-0.1 0,0 V 274 c 0,0.1 0.1,0 0,0 h -5.8 c -0.1,0 0,0.1 0,0 z"
         stroke="#0000ff"
         stroke-width="0.2"
         id="path30"
         style="stroke:#ff0000;stroke-width:0.1;stroke-dasharray:none" /><path
         d="m 475.8,292.1 v -5.9 c 0,-0.1 -0.1,0 0,0 h 5.8 c 0.1,0 0,-0.1 0,0 V 298 c 0,0.1 0.1,0 0,0 h -5.8 c -0.1,0 0,0.1 0,0 z"
         stroke="#0000ff"
         stroke-width="0.2"
         id="path31"
         style="stroke:#ff0000;stroke-width:0.1;stroke-dasharray:none" /></g><g
       id="p-5"
       style="fill:none;stroke-linecap:round;stroke-linejoin:round;stroke:#ff0000;stroke-width:0.1"
       transform="translate(588.20302,364.44094)"><text
         dominant-baseline="hanging"
         font-size="4px"
         style="font-style:normal;font-weight:normal;font-family:sans-serif;fill:#00ff00;stroke:#00ff00;stroke-width:0.1"
         text-anchor="middle"
         transform="translate(571.595,158.2)"
         id="text31">Panel</text><path
         d="m 495.462,310.2 h 10.133 c 0.055,0 0.1,-0.045 0.1,-0.1 v -5.9 c 0,-0.1 -0.1,0 0,0 h 11.8 c 0.1,0 0,-0.1 0,0 v 5.9 c 0,0.055 0.045,0.1 0.1,0.1 h 12 c 0.055,0 0.1,-0.045 0.1,-0.1 v -5.9 c 0,-0.1 -0.1,0 0,0 h 11.8 c 0.1,0 0,-0.1 0,0 v 5.9 c 0,0.055 0.045,0.1 0.1,0.1 h 12 c 0.055,0 0.1,-0.045 0.1,-0.1 v -5.9 c 0,-0.1 -0.1,0 0,0 h 11.8 c 0.1,0 0,-0.1 0,0 v 5.9 c 0,0.055 0.045,0.1 0.1,0.1 h 12 c 0.055,0 0.1,-0.045 0.1,-0.1 v -5.9 c 0,-0.1 -0.1,0 0,0 h 11.8 c 0.1,0 0,-0.1 0,0 v 5.9 c 0,0.055 0.045,0.1 0.1,0.1 h 12 c 0.055,0 0.1,-0.045 0.1,-0.1 v -5.9 c 0,-0.1 -0.1,0 0,0 h 11.8 c 0.1,0 0,-0.1 0,0 v 5.9 c 0,0.055 0.045,0.1 0.1,0.1 h 12 c 0.055,0 0.1,-0.045 0.1,-0.1 v -5.9 c 0,-0.1 -0.1,0 0,0 h 11.8 c 0.1,0 0,-0.1 0,0 v 5.9 c 0,0.055 0.045,0.1 0.1,0.1 h 10.133 6 c 0.056,0 0.1,-0.045 0.1,-0.1 v -6 -288 -6 c 0,-0.055 -0.044,-0.1 -0.1,-0.1 h -6 -10.133 c -0.055,0 -0.1,0.045 -0.1,0.1 V 16 c 0,0.1 0.1,0 0,0 h -11.8 c -0.1,0 0,0.1 0,0 v -5.9 c 0,-0.055 -0.045,-0.1 -0.1,-0.1 h -12 c -0.055,0 -0.1,0.045 -0.1,0.1 V 16 c 0,0.1 0.1,0 0,0 h -11.8 c -0.1,0 0,0.1 0,0 v -5.9 c 0,-0.055 -0.045,-0.1 -0.1,-0.1 h -12 c -0.055,0 -0.1,0.045 -0.1,0.1 V 16 c 0,0.1 0.1,0 0,0 h -11.8 c -0.1,0 0,0.1 0,0 v -5.9 c 0,-0.055 -0.045,-0.1 -0.1,-0.1 h -12 c -0.055,0 -0.1,0.045 -0.1,0.1 V 16 c 0,0.1 0.1,0 0,0 h -11.8 c -0.1,0 0,0.1 0,0 v -5.9 c 0,-0.055 -0.045,-0.1 -0.1,-0.1 h -12 c -0.055,0 -0.1,0.045 -0.1,0.1 V 16 c 0,0.1 0.1,0 0,0 h -11.8 c -0.1,0 0,0.1 0,0 v -5.9 c 0,-0.055 -0.045,-0.1 -0.1,-0.1 h -12 c -0.055,0 -0.1,0.045 -0.1,0.1 V 16 c 0,0.1 0.1,0 0,0 h -11.8 c -0.1,0 0,0.1 0,0 v -5.9 c 0,-0.055 -0.045,-0.1 -0.1,-0.1 h -10.133 -6 c -0.055,0 -0.1,0.045 -0.1,0.1 v 6 288 6 c 0,0.055 0.045,0.1 0.1,0.1 h 6"
         stroke="#000000"
         stroke-width="0.2"
         id="path32"
         style="stroke:#ff0000;stroke-width:0.1" /></g><g
       id="p-6"
       style="fill:none;stroke-linecap:round;stroke-linejoin:round;stroke:#ff0000;stroke-width:0.1"
       transform="translate(588.20302,364.44094)"><path
         d="m 692.928,292.1 h -8.9 c -0.1,0 0,0.1 0,0 v -5.8 c 0,-0.1 -0.1,0 0,0 h 5.6 c 0.056,0 0.1,-0.045 0.1,-0.1 v -12 c 0,-0.055 -0.044,-0.1 -0.1,-0.1 h -5.6 c -0.1,0 0,0.1 0,0 v -5.8 c 0,-0.1 -0.1,0 0,0 h 17.8 c 0.1,0 0,-0.1 0,0 v 5.8 c 0,0.1 0.1,0 0,0 h -5.6 c -0.055,0 -0.1,0.045 -0.1,0.1 v 12 c 0,0.055 0.045,0.1 0.1,0.1 h 5.6 c 0.1,0 0,-0.1 0,0 v 5.8 c 0,0.1 0.1,0 0,0 z"
         stroke="#0000ff"
         stroke-width="0.2"
         id="path33"
         style="stroke:#ff0000;stroke-width:0.1" /><text
         dominant-baseline="hanging"
         font-size="4px"
         style="font-style:normal;font-weight:normal;font-family:sans-serif;fill:#00ff00;stroke:#00ff00;stroke-width:0.1"
         text-anchor="middle"
         transform="translate(690.954,158.2)"
         id="text33">Back Wall</text><path
         d="m 656.928,310.2 h 68.051 c 0.055,0 0.1,-0.045 0.1,-0.1 v -6 -288 -6 c 0,-0.055 -0.045,-0.1 -0.1,-0.1 h -68.051 c -0.055,0 -0.1,0.045 -0.1,0.1 v 6 288 6 c 0,0.055 0.045,0.1 0.1,0.1"
         stroke="#000000"
         stroke-width="0.2"
         id="path34"
         style="stroke:#ff0000;stroke-width:0.1" /><path
         d="m 717.954,298.2 h 3.412 c 0.1,0 0,-0.1 0,0 v 5.8 c 0,0.1 0.1,0 0,0 h -6.825 c -0.1,0 0,0.1 0,0 v -5.8 c 0,-0.1 -0.1,0 0,0 z"
         stroke="#0000ff"
         stroke-width="0.2"
         id="path35"
         style="stroke:#ff0000;stroke-width:0.1" /><path
         d="m 693.828,28.1 h 8.9 c 0.1,0 0,-0.1 0,0 v 5.8 c 0,0.1 0.1,0 0,0 h -5.6 c -0.055,0 -0.1,0.045 -0.1,0.1 v 12 c 0,0.055 0.045,0.1 0.1,0.1 h 5.6 c 0.1,0 0,-0.1 0,0 v 5.8 c 0,0.1 0.1,0 0,0 h -17.8 c -0.1,0 0,0.1 0,0 v -5.8 c 0,-0.1 -0.1,0 0,0 h 5.6 c 0.056,0 0.1,-0.045 0.1,-0.1 V 34 c 0,-0.055 -0.044,-0.1 -0.1,-0.1 h -5.6 c -0.1,0 0,0.1 0,0 v -5.8 c 0,-0.1 -0.1,0 0,0 z"
         stroke="#0000ff"
         stroke-width="0.2"
         id="path36"
         style="stroke:#ff0000;stroke-width:0.1" /><path
         d="m 718.254,22 h -3.413 c -0.1,0 0,0.1 0,0 v -5.8 c 0,-0.1 -0.1,0 0,0 h 6.825 c 0.1,0 0,-0.1 0,0 V 22 c 0,0.1 0.1,0 0,0 z"
         stroke="#0000ff"
         stroke-width="0.2"
         id="path37"
         style="stroke:#ff0000;stroke-width:0.1" /></g><g
       id="p-7"
       style="fill:none;stroke-linecap:round;stroke-linejoin:round;stroke:#ff0000;stroke-width:0.1"
       transform="rotate(90,938.73125,742.47713)"><text
         dominant-baseline="hanging"
         font-size="4px"
         style="font-style:normal;font-weight:normal;font-family:sans-serif;fill:#00ff00;stroke:#00ff00;stroke-width:0.1"
         text-anchor="middle"
         transform="translate(737.179,295.175)"
         id="text37">Guide</text><path
         d="m 734.179,310.2 h 12 c 0.055,0 0.1,-0.045 0.1,-0.1 v -6 -14.05 -6 c 0,-0.056 -0.045,-0.1 -0.1,-0.1 h -12 c -0.055,0 -0.1,0.044 -0.1,0.1 v 6 3.412 c 0,0.1 0.1,0 0,0 h -5.9 c -0.055,0 -0.1,0.045 -0.1,0.1 v 7.025 c 0,0.056 0.045,0.1 0.1,0.1 h 5.9 c 0.1,0 0,-0.1 0,0 v 3.413 6 c 0,0.055 0.045,0.1 0.1,0.1"
         stroke="#000000"
         stroke-width="0.2"
         id="path38"
         style="stroke:#ff0000;stroke-width:0.1" /></g><g
       id="p-8"
       style="fill:none;stroke-linecap:round;stroke-linejoin:round;stroke:#ff0000;stroke-width:0.1"
       transform="rotate(90,935.04993,717.22682)"><text
         dominant-baseline="hanging"
         font-size="4px"
         style="font-style:normal;font-weight:normal;font-family:sans-serif;fill:#00ff00;stroke:#00ff00;stroke-width:0.1"
         text-anchor="middle"
         transform="translate(758.379,295.175)"
         id="text38">Guide</text><path
         d="m 755.379,310.2 h 12 c 0.055,0 0.1,-0.045 0.1,-0.1 v -6 -14.05 -6 c 0,-0.056 -0.045,-0.1 -0.1,-0.1 h -12 c -0.055,0 -0.1,0.044 -0.1,0.1 v 6 3.412 c 0,0.1 0.1,0 0,0 h -5.9 c -0.055,0 -0.1,0.045 -0.1,0.1 v 7.025 c 0,0.056 0.045,0.1 0.1,0.1 h 5.9 c 0.1,0 0,-0.1 0,0 v 3.413 6 c 0,0.055 0.045,0.1 0.1,0.1"
         stroke="#000000"
         stroke-width="0.2"
         id="path39"
         style="stroke:#ff0000;stroke-width:0.1" /></g><g
       id="p-9"
       style="fill:none;stroke-linecap:round;stroke-linejoin:round;stroke:#ff0000;stroke-width:0.1"
       transform="translate(545.18929,364.14255)"><text
         dominant-baseline="hanging"
         font-size="4px"
         style="font-style:normal;font-weight:normal;font-family:sans-serif;fill:#00ff00;stroke:#00ff00;stroke-width:0.1"
         text-anchor="middle"
         transform="translate(779.579,158.2)"
         id="text39">Bottom Back</text><path
         d="m 770.579,310.2 h 3 c 0.055,0 0.1,-0.045 0.1,-0.1 v -5.9 c 0,-0.1 -0.1,0 0,0 h 11.8 c 0.1,0 0,-0.1 0,0 v 5.9 c 0,0.055 0.045,0.1 0.1,0.1 h 3 c 0.055,0 0.1,-0.045 0.1,-0.1 v -6 -288 -6 c 0,-0.055 -0.045,-0.1 -0.1,-0.1 h -3 c -0.055,0 -0.1,0.045 -0.1,0.1 V 16 c 0,0.1 0.1,0 0,0 h -11.8 c -0.1,0 0,0.1 0,0 v -5.9 c 0,-0.055 -0.045,-0.1 -0.1,-0.1 h -3 c -0.055,0 -0.1,0.045 -0.1,0.1 v 6 288 6 c 0,0.055 0.045,0.1 0.1,0.1"
         stroke="#000000"
         stroke-width="0.2"
         id="path40"
         style="stroke:#ff0000;stroke-width:0.1" /><path
         d="m 782.479,292.1 v 5.9 c 0,0.1 0.1,0 0,0 h -5.8 c -0.1,0 0,0.1 0,0 v -11.8 c 0,-0.1 -0.1,0 0,0 h 5.8 c 0.1,0 0,-0.1 0,0 z"
         stroke="#0000ff"
         stroke-width="0.2"
         id="path41"
         style="stroke:#ff0000;stroke-width:0.1" /><path
         d="m 782.479,268.1 v 5.9 c 0,0.1 0.1,0 0,0 h -5.8 c -0.1,0 0,0.1 0,0 v -11.8 c 0,-0.1 -0.1,0 0,0 h 5.8 c 0.1,0 0,-0.1 0,0 z"
         stroke="#0000ff"
         stroke-width="0.2"
         id="path42"
         style="stroke:#ff0000;stroke-width:0.1" /><path
         d="m 782.479,244.1 v 5.9 c 0,0.1 0.1,0 0,0 h -5.8 c -0.1,0 0,0.1 0,0 v -11.8 c 0,-0.1 -0.1,0 0,0 h 5.8 c 0.1,0 0,-0.1 0,0 z"
         stroke="#0000ff"
         stroke-width="0.2"
         id="path43"
         style="stroke:#ff0000;stroke-width:0.1" /><path
         d="m 782.479,220.1 v 5.9 c 0,0.1 0.1,0 0,0 h -5.8 c -0.1,0 0,0.1 0,0 v -11.8 c 0,-0.1 -0.1,0 0,0 h 5.8 c 0.1,0 0,-0.1 0,0 z"
         stroke="#0000ff"
         stroke-width="0.2"
         id="path44"
         style="stroke:#ff0000;stroke-width:0.1" /><path
         d="m 782.479,196.1 v 5.9 c 0,0.1 0.1,0 0,0 h -5.8 c -0.1,0 0,0.1 0,0 v -11.8 c 0,-0.1 -0.1,0 0,0 h 5.8 c 0.1,0 0,-0.1 0,0 z"
         stroke="#0000ff"
         stroke-width="0.2"
         id="path45"
         style="stroke:#ff0000;stroke-width:0.1" /><path
         d="m 782.479,172.1 v 5.9 c 0,0.1 0.1,0 0,0 h -5.8 c -0.1,0 0,0.1 0,0 v -11.8 c 0,-0.1 -0.1,0 0,0 h 5.8 c 0.1,0 0,-0.1 0,0 z"
         stroke="#0000ff"
         stroke-width="0.2"
         id="path46"
         style="stroke:#ff0000;stroke-width:0.1" /><path
         d="m 782.479,148.1 v 5.9 c 0,0.1 0.1,0 0,0 h -5.8 c -0.1,0 0,0.1 0,0 v -11.8 c 0,-0.1 -0.1,0 0,0 h 5.8 c 0.1,0 0,-0.1 0,0 z"
         stroke="#0000ff"
         stroke-width="0.2"
         id="path47"
         style="stroke:#ff0000;stroke-width:0.1" /><path
         d="m 782.479,124.1 v 5.9 c 0,0.1 0.1,0 0,0 h -5.8 c -0.1,0 0,0.1 0,0 v -11.8 c 0,-0.1 -0.1,0 0,0 h 5.8 c 0.1,0 0,-0.1 0,0 z"
         stroke="#0000ff"
         stroke-width="0.2"
         id="path48"
         style="stroke:#ff0000;stroke-width:0.1" /><path
         d="m 782.479,100.1 v 5.9 c 0,0.1 0.1,0 0,0 h -5.8 c -0.1,0 0,0.1 0,0 V 94.2 c 0,-0.1 -0.1,0 0,0 h 5.8 c 0.1,0 0,-0.1 0,0 z"
         stroke="#0000ff"
         stroke-width="0.2"
         id="path49"
         style="stroke:#ff0000;stroke-width:0.1" /><path
         d="M 782.479,76.1 V 82 c 0,0.1 0.1,0 0,0 h -5.8 c -0.1,0 0,0.1 0,0 V 70.2 c 0,-0.1 -0.1,0 0,0 h 5.8 c 0.1,0 0,-0.1 0,0 z"
         stroke="#0000ff"
         stroke-width="0.2"
         id="path50"
         style="stroke:#ff0000;stroke-width:0.1" /><path
         d="M 782.479,52.1 V 58 c 0,0.1 0.1,0 0,0 h -5.8 c -0.1,0 0,0.1 0,0 V 46.2 c 0,-0.1 -0.1,0 0,0 h 5.8 c 0.1,0 0,-0.1 0,0 z"
         stroke="#0000ff"
         stroke-width="0.2"
         id="path51"
         style="stroke:#ff0000;stroke-width:0.1" /><path
         d="M 782.479,28.1 V 34 c 0,0.1 0.1,0 0,0 h -5.8 c -0.1,0 0,0.1 0,0 V 22.2 c 0,-0.1 -0.1,0 0,0 h 5.8 c 0.1,0 0,-0.1 0,0 z"
         stroke="#0000ff"
         stroke-width="0.2"
         id="path52"
         style="stroke:#ff0000;stroke-width:0.1" /></g><g
       id="p-10"
       style="fill:none;stroke-linecap:round;stroke-linejoin:round;stroke:#ff0000;stroke-width:0.1"
       transform="rotate(90,1004.6458,789.02976)"><path
         d="m 791.779,303 h 5.9 c 0.1,0 0,-0.1 0,0 v 1.1 c 0,0.055 0.045,0.1 0.1,0.1 h 11.9 c 0.1,0 0,-0.1 0,0 v 5.9 c 0,0.055 0.045,0.1 0.1,0.1 h 6 c 0.055,0 0.1,-0.045 0.1,-0.1 v -5.9 c 0,-0.1 -0.1,0 0,0 h 17.9 c 0.055,0 0.1,-0.045 0.1,-0.1 v -5.9 c 0,-0.1 -0.1,0 0,0 h 5.9 c 0.055,0 0.1,-0.045 0.1,-0.1 v -6 c 0,-0.055 -0.045,-0.1 -0.1,-0.1 h -12 c -0.055,0 -0.1,0.045 -0.1,0.1 v 2.893 c 0,0.107 0.107,0.007 0,0 l -29.222,-2.044 c -0.057,-0.004 -0.107,0.042 -0.107,0.1 v 3 c 0,0.053 0.041,0.096 0.093,0.1 l 29.329,2.051 c -0.021,-0.002 -0.04,-0.009 -0.056,-0.023 -0.016,-0.013 -0.028,-0.03 -0.034,-0.05 -0.005,-0.02 -0.004,-0.041 0.003,-0.061 0.006,-0.019 0.019,-0.036 0.036,-0.048 0.017,-0.012 0.037,-0.018 0.058,-0.018 h -29.9 c -0.1,0 0,0.1 0,0 v -5.9 c 0,-0.055 -0.045,-0.1 -0.1,-0.1 h -6 c -0.055,0 -0.1,0.045 -0.1,0.1 v 10.8 c 0,0.055 0.045,0.1 0.1,0.1 z"
         stroke="#000000"
         stroke-width="0.2"
         id="path53"
         style="stroke:#ff0000;stroke-width:0.1" /></g><g
       id="p-11"
       style="fill:none;stroke-linecap:round;stroke-linejoin:round;stroke:#ff0000;stroke-width:0.1"
       transform="rotate(-90,1360.0633,88.235942)"><path
         d="m 773.37751,226.22751 h 5.9 c 0.1,0 0,-0.1 0,0 v 1.1 c 0,0.055 0.045,0.1 0.1,0.1 h 11.9 c 0.1,0 0,-0.1 0,0 v 5.9 c 0,0.055 0.045,0.1 0.1,0.1 h 6 c 0.055,0 0.1,-0.045 0.1,-0.1 v -5.9 c 0,-0.1 -0.1,0 0,0 h 17.9 c 0.055,0 0.1,-0.045 0.1,-0.1 v -5.9 c 0,-0.1 -0.1,0 0,0 h 5.9 c 0.055,0 0.1,-0.045 0.1,-0.1 v -6 c 0,-0.055 -0.045,-0.1 -0.1,-0.1 h -12 c -0.055,0 -0.1,0.045 -0.1,0.1 v 2.893 c 0,0.107 0.107,0.007 0,0 l -29.222,-2.044 c -0.057,-0.004 -0.107,0.042 -0.107,0.1 v 3 c 0,0.053 0.041,0.096 0.093,0.1 l 29.329,2.051 c -0.021,-0.002 -0.04,-0.009 -0.056,-0.023 -0.016,-0.013 -0.028,-0.03 -0.034,-0.05 -0.005,-0.02 -0.004,-0.041 0.003,-0.061 0.006,-0.019 0.019,-0.036 0.036,-0.048 0.017,-0.012 0.037,-0.018 0.058,-0.018 h -29.9 c -0.1,0 0,0.1 0,0 v -5.9 c 0,-0.055 -0.045,-0.1 -0.1,-0.1 h -6 c -0.055,0 -0.1,0.045 -0.1,0.1 v 10.8 c 0,0.055 0.045,0.1 0.1,0.1 z"
         stroke="#000000"
         stroke-width="0.2"
         id="path54"
         style="stroke:#ff0000;stroke-width:0.1" /></g><g
       id="p-12"
       style="fill:none;stroke-linecap:round;stroke-linejoin:round;stroke:#ff0000;stroke-width:0.1"
       transform="translate(685.71243,281.57849)"><path
         d="m 794.779,267.8 h 5.7 c 0.055,0 0.1,-0.045 0.1,-0.1 v -15.2 c 0,-0.1 -0.1,0 0,0 h 6.4 c 0.1,0 0,-0.1 0,0 v 15.2 c 0,0.055 0.045,0.1 0.1,0.1 h 5.7 c 0.055,0 0.1,-0.045 0.1,-0.1 v -5.9 c 0,-0.1 -0.1,0 0,0 h 2.9 c 0.055,0 0.1,-0.045 0.1,-0.1 v -12 c 0,-0.027 -0.011,-0.052 -0.03,-0.071 l -6,-6 c -0.018,-0.018 -0.044,-0.029 -0.07,-0.029 h -12 c -0.027,0 -0.052,0.011 -0.071,0.029 l -6,6 c -0.019,0.019 -0.029,0.044 -0.029,0.071 v 12 c 0,0.055 0.045,0.1 0.1,0.1 h 2.9 c 0.1,0 0,-0.1 0,0 v 5.9 c 0,0.055 0.045,0.1 0.1,0.1 z"
         stroke="#000000"
         stroke-width="0.2"
         id="path55"
         style="stroke:#ff0000;stroke-width:0.1" /></g><g
       id="p-13"
       style="fill:none;stroke-linecap:round;stroke-linejoin:round;stroke:#ff0000;stroke-width:0.1"
       transform="translate(633.08418,281.94652)"><path
         d="m 821.979,267.8 h 5.7 c 0.055,0 0.1,-0.045 0.1,-0.1 v -15.2 c 0,-0.1 -0.1,0 0,0 h 6.4 c 0.1,0 0,-0.1 0,0 v 15.2 c 0,0.055 0.045,0.1 0.1,0.1 h 5.7 c 0.055,0 0.1,-0.045 0.1,-0.1 v -5.9 c 0,-0.1 -0.1,0 0,0 h 2.9 c 0.055,0 0.1,-0.045 0.1,-0.1 v -12 c 0,-0.027 -0.011,-0.052 -0.03,-0.071 l -6,-6 c -0.018,-0.018 -0.044,-0.029 -0.07,-0.029 h -12 c -0.027,0 -0.052,0.011 -0.071,0.029 l -6,6 c -0.019,0.019 -0.029,0.044 -0.029,0.071 v 12 c 0,0.055 0.045,0.1 0.1,0.1 h 2.9 c 0.1,0 0,-0.1 0,0 v 5.9 c 0,0.055 0.045,0.1 0.1,0.1 z"
         stroke="#000000"
         stroke-width="0.2"
         id="path56"
         style="stroke:#ff0000;stroke-width:0.1" /></g><g
       id="p-14"
       style="fill:none;stroke-linecap:round;stroke-linejoin:round;stroke:#ff0000;stroke-width:0.1"
       transform="translate(634.00425,308.9967)"><path
         d="m 794.779,240.6 h 5.7 c 0.055,0 0.1,-0.045 0.1,-0.1 v -15.2 c 0,-0.1 -0.1,0 0,0 h 6.4 c 0.1,0 0,-0.1 0,0 v 15.2 c 0,0.055 0.045,0.1 0.1,0.1 h 5.7 c 0.055,0 0.1,-0.045 0.1,-0.1 v -5.9 c 0,-0.1 -0.1,0 0,0 h 2.9 c 0.055,0 0.1,-0.045 0.1,-0.1 v -12 c 0,-0.027 -0.011,-0.052 -0.03,-0.071 l -6,-6 c -0.018,-0.018 -0.044,-0.029 -0.07,-0.029 h -12 c -0.027,0 -0.052,0.011 -0.071,0.029 l -6,6 c -0.019,0.019 -0.029,0.044 -0.029,0.071 v 12 c 0,0.055 0.045,0.1 0.1,0.1 h 2.9 c 0.1,0 0,-0.1 0,0 v 5.9 c 0,0.055 0.045,0.1 0.1,0.1 z"
         stroke="#000000"
         stroke-width="0.2"
         id="path57"
         style="stroke:#ff0000;stroke-width:0.1" /></g><g
       id="p-15"
       style="fill:none;stroke-linecap:round;stroke-linejoin:round;stroke:#ff0000;stroke-width:0.1"
       transform="translate(629.77191,226.92607)"><path
         d="m 772.84703,322.85465 h 5.7 c 0.055,0 0.1,-0.045 0.1,-0.1 v -15.2 c 0,-0.1 -0.1,0 0,0 h 6.4 c 0.1,0 0,-0.1 0,0 v 15.2 c 0,0.055 0.045,0.1 0.1,0.1 h 5.7 c 0.055,0 0.1,-0.045 0.1,-0.1 v -5.9 c 0,-0.1 -0.1,0 0,0 h 2.9 c 0.055,0 0.1,-0.045 0.1,-0.1 v -12 c 0,-0.027 -0.011,-0.052 -0.03,-0.071 l -6,-6 c -0.018,-0.018 -0.044,-0.029 -0.07,-0.029 h -12 c -0.027,0 -0.052,0.011 -0.071,0.029 l -6,6 c -0.019,0.019 -0.029,0.044 -0.029,0.071 v 12 c 0,0.055 0.045,0.1 0.1,0.1 h 2.9 c 0.1,0 0,-0.1 0,0 v 5.9 c 0,0.055 0.045,0.1 0.1,0.1 z"
         stroke="#000000"
         stroke-width="0.2"
         id="path58"
         style="stroke:#ff0000;stroke-width:0.1" /></g></g></svg>
